<?xml version="1.0" standalone="no"?>
<!DOCTYPE svg PUBLIC "-//W3C//DTD SVG 1.1//EN" "http://www.w3.org/Graphics/SVG/1.1/DTD/svg11.dtd" >
<svg xmlns="http://www.w3.org/2000/svg">
<metadata></metadata>
<defs>
<font id="springsteel_serifthin" horiz-adv-x="503" >
<font-face units-per-em="1000" ascent="750" descent="-250" />
<missing-glyph horiz-adv-x="220" />
<glyph unicode="&#xfb01;" horiz-adv-x="529" d="M46 0v11q41 6 83 9q-9 183 -9 341v121h-99v18q65 10 99 10q0 46 2.5 77.5t12 67t27 56.5t50 35t78.5 14l127 -8v-110h-17q-1 7 -3 17.5t-4.5 35.5t-2.5 40h-100q-76 0 -105.5 -52.5t-29.5 -172.5q113 -10 223 -10h39v-479l87 -5v-16h-210v11q51 8 97 10q-9 189 -9 344 q0 85 1 112q-57 5 -119 5h-109v-461l89 -5v-16h-198z" />
<glyph unicode="&#xfb02;" horiz-adv-x="534" d="M46 0v11q41 6 83 9q-9 183 -9 341v123h-99v16q65 10 99 10q0 46 2.5 77.5t12 67t27 56.5t50 35t78.5 14q23 0 57 -2.5t57 -5.5l22 -2q-5 -208 -5 -385v-344l93 -5v-16h-210v11q47 7 91 9q-9 189 -9 345q0 132 11 370h-107q-76 0 -105.5 -52.5t-29.5 -172.5 q31 0 63.5 -2.5t49.5 -5.5l18 -2v-16h-131v-463l89 -5v-16h-198z" />
<glyph unicode="&#xfb03;" horiz-adv-x="789" d="M46 0v11q41 6 83 9q-9 183 -9 341v121h-99v18q7 1 19 3t38.5 4.5t41.5 2.5q0 44 2.5 73t12 61.5t27 51.5t49.5 31.5t78 12.5h32v-63h-9q-9 17 -10 40h-10q-81 0 -109 -45t-28 -162h225q0 46 2.5 77.5t12 67t27 56.5t50 35t78.5 14l127 -8v-110h-17q-1 7 -3 17.5 t-4.5 35.5t-2.5 40h-100q-76 0 -105.5 -52.5t-29.5 -172.5q113 -10 223 -10h39v-479l87 -5v-16h-210v11q51 8 97 10q-9 189 -9 344q0 85 1 112q-57 5 -119 5h-109v-461l89 -5v-16h-198v11q41 6 83 9q-9 183 -9 341v121h-225v-461l101 -5v-16h-210z" />
<glyph unicode="&#xfb04;" horiz-adv-x="794" d="M46 0v11q41 6 83 9q-9 183 -9 341v121h-99v18q7 1 19 3t38.5 4.5t41.5 2.5q0 44 2.5 73t12 61.5t27 51.5t49.5 31.5t78 12.5h32v-63h-9q-9 17 -10 40h-10q-81 0 -109 -45t-28 -162h225q0 46 2.5 77.5t12 67t27 56.5t50 35t78.5 14q23 0 57 -2.5t57 -5.5l22 -2 q-5 -208 -5 -385v-344l93 -5v-16h-210v11q47 7 91 9q-9 189 -9 345q0 132 11 370h-107q-76 0 -105.5 -52.5t-29.5 -172.5q31 0 63.5 -2.5t49.5 -5.5l18 -2v-18h-131v-461l89 -5v-16h-198v11q41 6 83 9q-9 183 -9 341v121h-225v-461l101 -5v-16h-210z" />
<glyph horiz-adv-x="0" />
<glyph horiz-adv-x="333" />
<glyph unicode=" "  horiz-adv-x="220" />
<glyph unicode="&#x09;" horiz-adv-x="220" />
<glyph unicode="&#xa0;" horiz-adv-x="220" />
<glyph unicode="!" horiz-adv-x="235" d="M99 142v208q0 73 2.5 160.5t4.5 138.5l3 51h30q-5 -185 -5 -350v-208h-35zM89 24q0 12 7.5 19.5t19.5 7.5t20 -7.5t8 -19.5t-8 -20t-20 -8t-19.5 8t-7.5 20z" />
<glyph unicode="&#x22;" horiz-adv-x="269" d="M213 517h-25q-10 113 -10 183h35v-183zM86 517h-25q-10 113 -10 183h35v-183z" />
<glyph unicode="#" horiz-adv-x="688" d="M44 222v20h173v215h-173v20h172l11 223h30q-6 -104 -6 -223h185l11 223h30q-6 -104 -6 -223h173v-20h-172v-215h172v-20h-173q0 -112 6 -222h-30q-8 103 -11 222h-185q0 -112 6 -222h-30q-8 103 -11 222h-172zM252 242h185v215h-185v-215z" />
<glyph unicode="$" horiz-adv-x="519" d="M250 -110v100q-57 2 -106 15t-69 25l-20 12v88h11l3 -12t4.5 -28.5t2.5 -36.5q76 -38 189 -38q59 0 97.5 13t55 38.5t21.5 49t5 59.5q0 57 -35.5 81.5t-145.5 40.5q-122 19 -169.5 57.5t-47.5 111.5q0 37 9.5 67.5t31.5 57.5t63.5 43t99.5 17l5 99h20v-100 q48 -2 92 -14.5t63 -24.5l20 -12v-114h-11q-10 59 -10 108q-73 32 -169 32q-47 0 -81.5 -9.5t-53 -24t-29 -37t-13 -42t-2.5 -46.5q0 -58 37 -87.5t145 -46.5q124 -20 170 -52.5t46 -104.5q0 -178 -204 -186l-5 -99h-20z" />
<glyph unicode="%" horiz-adv-x="580" d="M88 0l360 685h-212q60 -33 60 -108q0 -58 -39 -93t-95 -35t-95 35t-39 93q0 24 5.5 43.5t18 33.5t25 24t34.5 15.5l38 9.5t43.5 5t42.5 1.5t44 0.5h7q44 0 95.5 -2.5t80.5 -5.5l29 -2l-368 -700h-35zM56 577q0 -45 30 -72.5t76 -27.5t76 27.5t30 72.5q0 46 -30 73.5 t-76 27.5t-76 -27.5t-30 -73.5zM285 119q0 58 39 93t94 35q56 0 95 -35t39 -93t-39 -93.5t-95 -35.5q-55 0 -94 35.5t-39 93.5zM312 119q0 -46 30 -73.5t76 -27.5q47 0 77 27.5t30 73.5q0 45 -30 72.5t-77 27.5q-46 0 -76 -27.5t-30 -72.5z" />
<glyph unicode="&#x26;" horiz-adv-x="711" d="M679 0h-102l-100 99q-37 -50 -86.5 -79.5t-103.5 -29.5q-69 0 -117.5 18t-73 49.5t-34.5 65t-10 74.5q0 81 39.5 120.5t109.5 62.5q-89 95 -89 162q0 77 44 122.5t137 45.5q88 0 134.5 -42t46.5 -116q0 -41 -17.5 -73.5t-51 -54t-66.5 -34.5t-79 -26l213 -217 q69 106 81 194l-90 5v15h213v-10q-44 -8 -88 -10q-17 -90 -95 -214l107 -107l78 -10v-10zM457 120l-232 236q-64 -22 -101 -57.5t-37 -101.5q0 -29 2 -49.5t13.5 -47.5t31.5 -44t59 -29t94 -12q92 0 170 105zM234 391q5 1 28.5 7.5t30.5 8.5t27.5 8.5t28 10.5t23.5 12t23 15 t17.5 18t15 22.5t8 26.5t3.5 32q0 62 -36.5 97.5t-109.5 35.5q-146 0 -146 -143q0 -67 87 -151z" />
<glyph unicode="'" horiz-adv-x="142" d="M86 517h-25q-10 113 -10 183h35v-183z" />
<glyph unicode="(" horiz-adv-x="265" d="M217 -150h-25q-5 5 -14 16t-31.5 50.5t-39.5 86.5t-31 127t-14 170t13.5 169t32.5 128.5t38 85.5t32 51l14 16h25q-5 -5 -13 -16t-28.5 -50.5t-36.5 -86.5t-29 -127t-13 -170t12.5 -169t30 -128.5t35 -85.5t29.5 -51z" />
<glyph unicode=")" horiz-adv-x="265" d="M72 -150h-25q5 5 13 16t28.5 50.5t36.5 86.5t29 127t13 170t-12.5 169t-30 128.5t-35 85.5t-29.5 51l-13 16h25q5 -5 14 -16t31.5 -50.5t39.5 -86.5t31 -127t14 -170t-13.5 -169t-32.5 -128.5t-38 -85.5t-32 -51z" />
<glyph unicode="*" horiz-adv-x="384" d="M113 432l-5 3q21 55 54 119l-130 15v5q56 6 132 12l-55 122l5 2q33 -44 78 -107q18 28 37 54.5t29 39.5l10 13l5 -2q-24 -54 -55 -122l134 -12v-5q-57 -9 -135 -15l57 -119l-5 -3q-35 46 -77 108z" />
<glyph unicode="+" horiz-adv-x="552" d="M289 30h-25q-5 92 -5 247h-233v25h233l5 248h25v-248h237v-25h-237v-247z" />
<glyph unicode="," horiz-adv-x="149" d="M75 -140h-28q10 117 10 187h35q0 -31 -4 -78t-8 -78z" />
<glyph unicode="-" horiz-adv-x="379" d="M69 277v25h240v-25h-240z" />
<glyph unicode="." horiz-adv-x="158" d="M52 24q0 11 8 19t19 8t19.5 -8t8.5 -19t-8.5 -19.5t-19.5 -8.5t-19 8.5t-8 19.5z" />
<glyph unicode="/" horiz-adv-x="328" d="M32 -80l238 830h28l-237 -830h-29z" />
<glyph unicode="0" horiz-adv-x="604" d="M302 -10q-39 0 -71 8t-55 19t-41.5 32t-30 39t-19.5 48t-12 50.5t-6 55.5t-2.5 54t-0.5 54q0 45 0.5 69t5 68t13 70t26 58.5t42 50.5t63.5 31t88 13t87.5 -13t63 -31t42 -50.5t26 -58.5t13 -70t5 -68t0.5 -69q0 -46 -0.5 -70.5t-5 -68.5t-13 -69.5t-26 -58t-42 -50.5 t-63 -30.5t-87.5 -12.5zM302 15q59 0 98.5 19.5t60 44.5t30.5 77.5t11.5 87.5t1.5 105v58.5t-2 54.5t-5.5 53.5t-10.5 46t-17 42.5t-25 33t-35 26.5t-47 15t-60 6.5q-42 0 -75 -10.5t-54 -24.5t-36 -42.5t-22 -50.5t-11 -65t-4.5 -68t-0.5 -75q0 -70 1.5 -105t11.5 -87.5 t30.5 -77.5t60.5 -44.5t99 -19.5z" />
<glyph unicode="1" horiz-adv-x="289" d="M58 0v10q44 7 88 9q-9 186 -9 331q0 161 6 309q-52 -30 -117 -30v21q30 0 60 12.5t45 25.5l15 12h25q-5 -198 -5 -350q0 -210 3 -330l94 -5v-15h-205z" />
<glyph unicode="2" horiz-adv-x="552" d="M481 95v-95q-99 -10 -220 -10q-42 0 -91 2.5t-76 5.5l-28 2q-10 54 -10 149q0 86 44 128t176 69q112 22 151 67.5t39 121.5q0 35 -6 57.5t-25.5 46t-63.5 35t-113 11.5q-81 0 -159 -33q0 -24 -2.5 -50t-5.5 -40l-3 -15h-10v113q8 6 22.5 14t61.5 22t96 14 q138 0 190.5 -46t52.5 -129q0 -92 -49.5 -145.5t-178.5 -77.5q-106 -20 -144 -51.5t-38 -105.5v-140h170q118 0 200 4q0 16 2.5 35t4.5 30l3 11h10z" />
<glyph unicode="3" horiz-adv-x="559" d="M47 131h10q1 -5 3 -12.5t4.5 -28.5t2.5 -37q78 -38 185 -38q65 0 108.5 14t64 39.5t28 51t7.5 59.5q0 148 -190 158l-85 5v21h85q190 0 190 163q0 33 -7.5 58.5t-28 50t-64 37.5t-108.5 13q-96 0 -162 -33q0 -24 -2.5 -50t-5.5 -40l-2 -15h-10v113q8 6 23 14t62.5 22 t96.5 14q243 0 243 -184q0 -62 -26.5 -104.5t-88.5 -71.5q63 -30 89 -69.5t26 -101.5q0 -189 -243 -189q-54 0 -105.5 12.5t-75.5 25.5l-24 12v91z" />
<glyph unicode="4" horiz-adv-x="574" d="M323 0v10q45 7 89 9q-4 52 -10 272h-374q8 42 22.5 99.5t28.5 109.5t27 98.5t21 73.5l8 28h30q-65 -220 -96 -383h334q0 84 2.5 180t4.5 149l3 54h28q-3 -193 -3 -383h102v-16q-63 -10 -102 -10q0 -79 3 -271l87 -5v-15h-205z" />
<glyph unicode="5" horiz-adv-x="559" d="M70 127h10q9 -40 10 -75q79 -37 182 -37q55 0 95 11.5t61.5 28t34 42t16 46.5t3.5 49q0 165 -200 165h-212q0 71 2.5 157t5.5 136l2 50q80 10 192 10q49 0 97.5 -2.5t72.5 -5.5l23 -2v-105h-10q-1 5 -3 14t-4.5 31.5t-2.5 40.5q-68 4 -173 4h-167v-306q72 3 177 3 q120 0 177.5 -51.5t57.5 -138.5q0 -39 -11.5 -73t-38 -64t-76.5 -47.5t-119 -17.5q-54 0 -104.5 12.5t-73.5 25.5l-24 12v87z" />
<glyph unicode="6" horiz-adv-x="584" d="M488 564h-10q-10 48 -10 99q-66 22 -155 22q-59 0 -100 -17.5t-63.5 -43t-34.5 -69.5t-14.5 -81t-2.5 -94q108 4 215 4q228 0 228 -198q0 -35 -11 -67.5t-35.5 -62.5t-71 -48t-110.5 -18q-41 0 -75 8.5t-58.5 20.5t-43.5 34.5t-31 41t-20.5 50t-12.5 51.5t-6.5 56 t-2.5 52.5v51.5q0 44 1 73.5t6.5 70t15 67.5t28 56.5t44.5 46.5t65.5 28.5t89.5 11.5q47 0 90.5 -9t64.5 -17l20 -9v-111zM98 359q0 -37 0.5 -58.5t2.5 -55t5.5 -54t11 -47.5t18.5 -43.5t27 -34.5t37 -28t49.5 -16.5t63.5 -6.5q56 0 96 15.5t60 42.5t28.5 54.5t8.5 58.5 q0 173 -193 173h-215z" />
<glyph unicode="7" horiz-adv-x="499" d="M30 595v105q106 10 217 10q48 0 113 -2.5t106 -5.5l41 -2q-223 -359 -401 -700h-34q84 161 198.5 364.5t189.5 320.5h-213q-117 0 -197 -4q0 -17 -2.5 -38.5t-5.5 -34.5l-2 -13h-10z" />
<glyph unicode="8" horiz-adv-x="620" d="M310 -10q-134 0 -192 52t-58 135q0 130 139 176q-70 24 -99.5 68.5t-29.5 113.5q0 34 11.5 63.5t37 55.5t74.5 41t117 15t117 -15t74.5 -41t37 -55.5t11.5 -63.5q0 -67 -28.5 -107t-100.5 -69q139 -42 139 -182q0 -83 -58 -135t-192 -52zM278 344q-183 -23 -183 -167 q0 -162 215 -162t215 162q0 73 -58 121t-189 46zM340 368q101 13 138 57t37 110q0 65 -47.5 107.5t-157.5 42.5t-157.5 -42.5t-47.5 -107.5q0 -80 52 -124.5t183 -42.5z" />
<glyph unicode="9" horiz-adv-x="584" d="M96 117h10l3 -12t4.5 -28.5t2.5 -37.5q68 -24 162 -24q43 0 76 11t55 27t37 43t22.5 50t12 58t5 56.5t0.5 55.5q-105 -4 -215 -4q-117 0 -172.5 53.5t-55.5 136.5q0 37 10.5 70t34.5 66t72.5 52.5t116.5 19.5q141 0 192.5 -83.5t51.5 -276.5q0 -43 -1.5 -74t-6.5 -71.5 t-14.5 -68.5t-28 -57.5t-43.5 -47.5t-63 -29.5t-86 -11.5q-49 0 -94.5 10t-66.5 20l-21 10v87zM486 337q0 50 -1 82.5t-5.5 73t-13 65.5t-24 52t-37 41.5t-54 24t-74.5 9.5q-199 0 -199 -183q0 -71 44.5 -118t148.5 -47h215z" />
<glyph unicode=":" horiz-adv-x="194" d="M69 24q0 12 8 19.5t20 7.5t19.5 -7.5t7.5 -19.5t-7.5 -20t-19.5 -8t-20 8t-8 20zM69 357q0 12 8 20t20 8t19.5 -8t7.5 -20t-7.5 -19.5t-19.5 -7.5t-20 7.5t-8 19.5z" />
<glyph unicode=";" horiz-adv-x="194" d="M69 357q0 12 8 20t20 8t19.5 -8t7.5 -20t-7.5 -19.5t-19.5 -7.5t-20 7.5t-8 19.5zM97 -140h-28q10 117 10 187h35q0 -31 -4 -78t-8 -78z" />
<glyph unicode="&#x3c;" d="M449 65v-29q-135 63 -201 99.5t-184 110.5q-23 15 -36 23q-4 6 -4 21q0 6 1 10.5t2 7.5l1 3q183 115 254 152q61 32 167 81v-29q-146 -69 -219.5 -109.5t-189.5 -115.5q118 -77 191.5 -117.5t217.5 -107.5z" />
<glyph unicode="=" horiz-adv-x="629" d="M74 190v25h480v-25h-480zM74 365v25h480v-25h-480z" />
<glyph unicode="&#x3e;" horiz-adv-x="489" d="M53 41v29q152 72 212.5 106t183.5 114q-123 80 -183.5 114t-212.5 106v29q64 -30 106 -50.5t80.5 -42t60 -34.5t72.5 -45t89 -56q4 -8 4 -21q0 -9 -4 -21q-35 -21 -89 -55.5t-73 -46t-59 -34t-81.5 -42.5t-105.5 -50z" />
<glyph unicode="?" horiz-adv-x="487" d="M140 142v27q0 27 2 45.5t10 42.5t22 41t41 34t65 28q83 25 111.5 63.5t28.5 96.5q0 165 -208 165q-89 0 -159 -34q0 -23 -2.5 -49t-4.5 -40l-3 -15h-10v113q8 6 22 14t60.5 22t96.5 14q243 0 243 -190q0 -74 -37 -118t-133 -73q-69 -21 -89.5 -54.5t-20.5 -105.5v-27h-35 zM130 24q0 12 8 19.5t20 7.5t19.5 -7.5t7.5 -19.5t-7.5 -20t-19.5 -8t-20 8t-8 20z" />
<glyph unicode="@" horiz-adv-x="822" d="M512 441h17v-201l-5 -175h18q181 0 181 235q0 127 -89.5 200.5t-224.5 73.5q-149 0 -231 -81t-82 -253q0 -178 81 -256t232 -78q93 0 170.5 6t108.5 12l31 6v-20q-87 -30 -310 -30q-173 0 -261.5 82.5t-88.5 277.5q0 183 90.5 271.5t259.5 88.5q164 0 257 -80.5 t93 -219.5q0 -129 -57 -194.5t-155 -65.5h-45v62q-34 -68 -109 -68q-165 0 -165 206q0 106 49.5 156t115.5 50q75 0 109 -69q0 14 2.5 30t5.5 25zM388 420q-124 0 -124 -180q0 -103 33.5 -141.5t90.5 -38.5q51 0 80.5 38t29.5 99v85q0 55 -30 96.5t-80 41.5z" />
<glyph unicode="A" horiz-adv-x="655" d="M18 0v10q46 8 89 10q-9 147 -9 274q0 129 34 219.5t105 171.5l-94 5v10q-11 0 1 1q86 9 187 9q18 0 37 -2.5t29 -5.5l10 -2q80 -90 118 -181t38 -225q0 -127 -9 -274l89 -10v-10h-205v15q45 4 90 5v302h-395v-302l90 -5v-15h-205zM136 348h390q-8 110 -44.5 189.5 t-99.5 147.5h-103q-128 -138 -143 -337z" />
<glyph unicode="B" horiz-adv-x="628" d="M40 0v10q45 7 89 9q-9 180 -9 331q0 150 9 330l-89 10v10q37 0 125.5 5t157.5 5q134 0 188 -49t54 -136q0 -74 -45.5 -118.5t-88.5 -53.5q43 -9 93.5 -57t50.5 -121q0 -185 -242 -185q-69 0 -162.5 5t-130.5 5zM155 337l7 -317q53 -5 171 -5q114 0 160.5 42t46.5 118 q0 68 -54.5 115t-142.5 47h-188zM155 363h188q82 0 134.5 46.5t52.5 115.5q0 78 -43 119t-164 41q-52 0 -94 -1.5t-58 -2.5l-16 -1v-317z" />
<glyph unicode="C" horiz-adv-x="555" d="M503 82v-46q-8 -5 -23 -12.5t-65 -20.5t-106 -13q-73 0 -122 24t-75.5 72.5t-37.5 111.5t-11 152q0 65 4.5 112.5t19.5 97t41.5 80.5t72 50.5t108.5 19.5q56 0 104.5 -11.5t68.5 -22.5l21 -12v-112h-10q-10 52 -10 104q-77 29 -174 29q-55 0 -94.5 -19t-61.5 -48 t-35 -75.5t-16.5 -90t-3.5 -102.5t3.5 -102.5t16.5 -90t35 -75.5t61.5 -48t94.5 -19q102 0 178 27l10 40h6z" />
<glyph unicode="D" horiz-adv-x="646" d="M40 0v10q45 7 89 9q-9 180 -9 331q0 150 9 330l-89 10v10q35 0 124 5t164 5q50 0 90 -12.5t66.5 -32t46 -50t29.5 -60t16 -68.5t7.5 -69t1.5 -68t-1.5 -67.5t-7.5 -69t-16 -68.5t-29.5 -60t-46 -50.5t-66.5 -32t-90 -12.5q-75 0 -163.5 5t-124.5 5zM155 680v-330l4 -330 q46 -5 169 -5q58 0 100 19t65 48t36.5 76t17 89.5t3.5 102.5t-3.5 102.5t-17 89.5t-36.5 76t-65 48t-100 19q-55 0 -98 -1.5t-59 -2.5z" />
<glyph unicode="E" horiz-adv-x="580" d="M40 0v10q45 7 89 9q-9 177 -9 331q0 150 9 330l-89 10v10q40 0 137 5t151 5q48 0 97 -2.5t74 -5.5l25 -2v-108h-10q-1 6 -3 15t-4.5 33t-2.5 41q-74 4 -176 4l-173 -5v-317h297l11 82h11v-190h-11q-9 41 -11 82h-297l5 -317q55 -5 168 -5q65 0 176 3q0 17 2.5 39.5 t5.5 36.5l2 13h10v-107q-89 -10 -196 -10q-46 0 -146 5t-142 5z" />
<glyph unicode="F" horiz-adv-x="559" d="M40 0v10q45 7 89 9q-9 180 -9 331q0 150 9 330l-89 10v10q40 0 137 5t151 5q48 0 97 -2.5t74 -5.5l25 -2v-108h-10q-1 6 -3 15t-4.5 33t-2.5 41q-74 4 -176 4q-55 0 -98 -1.5t-59 -2.5l-16 -1v-317h298l10 82h11v-190h-11q-7 45 -10 82h-298q0 -203 4 -317l96 -5v-15 h-215z" />
<glyph unicode="G" horiz-adv-x="641" d="M585 11v-11q-77 0 -137 -2.5t-90.5 -5t-37.5 -2.5q-41 0 -75 8t-58.5 20t-44 32.5t-32.5 40t-22 48t-14 51t-7.5 55t-3 53.5t-0.5 52t0.5 52.5t3 53.5t7.5 54.5t14 51t22 48.5t32.5 40t44 32.5t58.5 20t75 7.5q58 0 110 -13t75 -25l23 -13v-112h-10q-11 53 -11 103 q-86 35 -187 35q-59 0 -100.5 -19t-65 -48t-36.5 -76t-16.5 -89.5t-3.5 -102.5t3.5 -102.5t17 -89.5t36.5 -76t65 -48t100 -19q42 0 85.5 2.5t65.5 5.5l22 3v311l-130 4v22h245v-17q-39 -6 -80 -8q-2 -267 -11 -319z" />
<glyph unicode="H" horiz-adv-x="720" d="M40 0v10q45 7 89 9q-9 186 -9 331q0 147 9 330l-89 10v10h205v-15q-42 -4 -86 -5q-4 -126 -4 -317h410q0 65 -4 317l-86 5v15h205v-10q-45 -8 -89 -10q9 -183 9 -330q0 -145 -9 -331l89 -9v-10h-205v15q45 4 90 5v317h-410q0 -197 4 -317l86 -5v-15h-205z" />
<glyph unicode="I" horiz-adv-x="279" d="M40 0v10q45 7 89 9q-9 180 -9 331q0 150 9 330l-89 10v10h205v-15q-42 -4 -86 -5q-4 -122 -4 -330q0 -212 4 -330l86 -5v-15h-205z" />
<glyph unicode="J" horiz-adv-x="319" d="M0 52h6q10 -18 10 -43h20q77 0 105.5 34t28.5 112q0 31 -2.5 93.5t-2.5 101.5q0 170 8 330l-101 10v10h218v-15q-43 -4 -86 -5q-4 -122 -4 -330v-148q0 -105 -11 -138q-18 -55 -88 -69q-25 -5 -53 -5l-48 5v57z" />
<glyph unicode="K" horiz-adv-x="630" d="M40 0v10q45 7 89 9q-9 180 -9 331q0 150 9 330l-89 10v10h205v-15q-42 -4 -86 -5q-4 -116 -4 -330l166 154q25 23 57 55.5t67.5 70t47.5 50.5l-75 5v15h202v-10q-41 -7 -82 -9q-22 -21 -97.5 -97.5t-115.5 -116.5l-33 -33t-53.5 -52t-35.5 -32q148 -129 335 -331l82 -9 v-10h-202v15q34 3 75 4l-14 12q-11 12 -47 51q-107 114 -137 141l-140 127q0 -214 4 -330l86 -5v-15h-205z" />
<glyph unicode="L" horiz-adv-x="540" d="M40 0v10q45 7 89 9q-9 180 -9 331q0 150 9 330l-89 10v10h218v-15q-55 -4 -99 -5q-4 -122 -4 -330q0 -195 5 -330q93 -5 168 -5q62 0 176 3q0 18 2.5 40t5.5 35l2 13h10v-106q-89 -10 -196 -10q-53 0 -150.5 5t-137.5 5z" />
<glyph unicode="M" horiz-adv-x="863" d="M40 0v10q45 7 89 9q-9 186 -9 331q0 144 9 330q-18 0 -40 2.5t-35 5.5l-14 2v10h130q187 -453 261 -680q76 230 262 680h130v-10q-6 -1 -15 -3t-33 -4.5t-41 -2.5q9 -186 9 -330q0 -145 -9 -331l89 -9v-10h-208v15q48 4 93 5v645l-127 -329l-126 -336h-47 q-70 193 -127 336l-126 329v-315q0 -206 4 -330l89 -5v-15h-208z" />
<glyph unicode="N" horiz-adv-x="719" d="M40 0v10q45 7 89 9q-9 180 -9 331q0 147 9 330q-18 0 -40 2.5t-35 5.5l-14 2v10h131q25 -38 198 -333.5t201 -334.5v318q0 86 -4 330l-86 5v15h205v-10q-45 -8 -88 -10q8 -160 8 -330q0 -72 -2.5 -159.5t-4.5 -138.5l-3 -52h-42q-22 34 -197.5 335t-200.5 333v-318 q0 -212 4 -330l86 -5v-15h-205z" />
<glyph unicode="O" horiz-adv-x="644" d="M322 -10q-59 0 -103.5 15.5t-72 45t-45.5 62.5t-26 78t-10.5 79.5t-2.5 79.5t2.5 79.5t10.5 79.5t26 78t45.5 62.5t72 45t103.5 15.5q58 0 103 -15.5t72.5 -45t45.5 -62.5t26 -78t10.5 -79.5t2.5 -79.5t-2.5 -79.5t-10.5 -79.5t-26 -78t-45.5 -62.5t-72.5 -45t-103 -15.5 zM322 15q57 0 98.5 19t65.5 48.5t38 75t18.5 90t4.5 102.5t-4.5 102.5t-18.5 90t-38 75t-65.5 48.5t-98.5 19t-98.5 -19t-65.5 -48.5t-38 -75t-18.5 -90t-4.5 -102.5t4.5 -102.5t18.5 -90t38 -75t65.5 -48.5t98.5 -19z" />
<glyph unicode="P" horiz-adv-x="601" d="M40 0v10q45 7 89 9q-9 186 -9 331q0 147 9 330l-89 10v10q38 0 141.5 5t167.5 5q216 0 216 -195q0 -203 -216 -203h-194q0 -16 4 -292l96 -5v-15h-215zM155 338h194q87 0 134 45t47 132q0 170 -181 170q-60 0 -108.5 -1.5t-66.5 -2.5l-19 -1v-342z" />
<glyph unicode="Q" horiz-adv-x="644" d="M572 -78h-78l-65 86q-43 -18 -107 -18q-59 0 -103.5 15.5t-72 45t-45.5 62.5t-26 78t-10.5 79.5t-2.5 79.5t2.5 79.5t10.5 79.5t26 78t45.5 62.5t72 45t103.5 15.5q58 0 103 -15.5t72.5 -45t45.5 -62.5t26 -78t10.5 -79.5t2.5 -79.5q0 -259 -129 -331l57 -77 q10 0 25.5 -2t26.5 -4l10 -2v-12zM263 137h95l77 -97q112 67 112 310q0 58 -4.5 102.5t-18.5 90t-38 75t-65.5 48.5t-98.5 19t-98.5 -19t-65.5 -48.5t-38 -75t-18.5 -90t-4.5 -102.5t4.5 -102.5t18.5 -90t38 -75t65.5 -48.5t98.5 -19q47 0 88 13l-66 88q-18 0 -38.5 2.5 t-31.5 5.5l-11 2v11z" />
<glyph unicode="R" horiz-adv-x="645" d="M40 0v10q45 7 89 9q-9 186 -9 331q0 147 9 330l-89 10v10q38 0 141.5 5t166.5 5q100 0 158 -48t58 -137q0 -90 -48 -144t-143 -61q31 -41 59 -81t45 -65t49.5 -74.5t53.5 -80.5l83 -9v-10h-207v15q39 2 82 4q-44 68 -93.5 143.5t-77.5 117.5l-28 41h-184q0 -17 4 -301 l90 -5v-15h-209zM155 347h193q87 0 134 47.5t47 130.5q0 80 -48.5 120t-132.5 40q-60 0 -108 -1.5t-66 -2.5l-19 -1v-333z" />
<glyph unicode="S" horiz-adv-x="558" d="M71 130h11q10 -35 10 -77q85 -38 187 -38q101 0 150 46t49 110q0 77 -38 115t-151 46q-124 9 -181 64t-57 139q0 77 59 126t189 49q46 0 89.5 -11t63.5 -23l20 -11v-113h-10q-1 6 -3 16t-4.5 38t-2.5 51q-67 28 -153 28q-65 0 -109 -12t-65.5 -34.5t-30 -47t-8.5 -56.5 q0 -74 45 -117t158 -51q124 -9 174 -58t50 -138q0 -78 -57.5 -129.5t-176.5 -51.5q-58 0 -110 12.5t-75 25.5l-23 12v90z" />
<glyph unicode="T" d="M155 0v10q45 7 87 9q-8 165 -8 331q0 215 5 335h-200q0 -18 -2.5 -40.5t-4.5 -36.5l-3 -14h-10v106q121 10 232 10q49 0 107.5 -2.5t91.5 -5.5l34 -2v-106h-10q-11 47 -11 87q-110 4 -194 4v-335q0 -166 8 -331l80 -4v-15h-202z" />
<glyph unicode="U" horiz-adv-x="696" d="M26 700h205v-15q-46 -4 -90 -5v-330q0 -37 1 -62t5 -63.5t12 -64.5t23.5 -55.5t37 -47.5t54.5 -30t75 -12q37 0 67 7t51 22t36.5 31t25 43t15.5 49.5t8.5 58t3 60t0.5 64.5v330l-90 5v15h203v-10q-45 -8 -87 -10q9 -180 9 -330q0 -32 -0.5 -50.5t-2.5 -52.5t-6 -55 t-12.5 -51t-20.5 -49t-30.5 -40.5t-42 -33.5t-56 -20t-71.5 -8q-49 0 -88 13t-64 31.5t-43 50.5t-27 59.5t-14 69t-6 68.5t-1 68q0 150 9 330l-89 10v10z" />
<glyph unicode="V" horiz-adv-x="669" d="M-5 700h205v-15q-45 -4 -90 -5q49 -177 101 -320l124 -341l123 341q37 101 102 320l-90 5v15h205v-10q-39 -7 -79 -9q-131 -426 -238 -682q-12 -4 -23 -4l-23 4q-105 250 -239 682l-78 9v10z" />
<glyph unicode="W" horiz-adv-x="1109" d="M-5 700h205v-15q-43 -4 -87 -5q49 -189 97 -333l110 -328l110 328q51 160 97 333l-69 10v10h193v-10q-34 -7 -69 -10q46 -175 98 -333l110 -328l110 328q56 173 95 333l-85 5v15h205v-10q-43 -7 -85 -10q-47 -173 -111.5 -376t-105.5 -305q-12 -4 -23 -4l-23 4 q-43 107 -110 315.5t-102 345.5q-36 -140 -103 -348t-109 -313q-12 -4 -23 -4l-23 4q-41 102 -105.5 305t-111.5 376l-85 10v10z" />
<glyph unicode="X" horiz-adv-x="640" d="M4 0v10q42 7 85 9q131 224 211 338q-50 72 -199 323l-85 10v10h205v-15q-41 -3 -82 -5q103 -181 181 -293q77 113 180 293l-81 5v15h205v-10q-43 -7 -86 -10q-151 -254 -198 -323q107 -154 210 -338l86 -9v-10h-205v15q40 2 82 4q-110 191 -193 308q-79 -112 -194 -308 l83 -4v-15h-205z" />
<glyph unicode="Y" horiz-adv-x="620" d="M202 0v10q44 7 87 9q3 217 3 320q-59 78 -121.5 178.5t-94.5 163.5l-81 9v10h205v-15q-40 -4 -84 -5q83 -162 194 -310q117 160 194 310l-84 5v15h205v-10q-40 -7 -81 -9q-34 -65 -96.5 -164.5t-120.5 -177.5q-1 -152 -10 -319l90 -5v-15h-205z" />
<glyph unicode="Z" horiz-adv-x="527" d="M473 96v-96q-108 -10 -221 -10q-44 0 -101 2.5t-91 5.5l-35 2q72 143 234 370q115 159 201 315h-196q-92 0 -188 -4q0 -18 -3 -39.5t-5 -34.5l-3 -13h-10v106q90 10 209 10q52 0 112 -2.5t94 -5.5l35 -2q-34 -68 -103 -176.5t-131 -193.5q-126 -179 -200 -315h181 q37 0 73.5 0.5t73 2t53.5 1.5q0 18 2.5 37.5t5.5 29.5l2 10h11z" />
<glyph unicode="[" horiz-adv-x="272" d="M246 -123v-27q-27 0 -62 2.5t-56 5.5l-22 2q-15 280 -15 440q0 71 3.5 181t7.5 185l4 74q80 10 140 10v-28h-115q-5 -262 -5 -422l5 -423h115z" />
<glyph unicode="\" horiz-adv-x="328" d="M296 -80h-28l-238 830h29z" />
<glyph unicode="]" horiz-adv-x="272" d="M27 -123h115q5 263 5 423l-5 422h-115v28q27 0 62 -2.5t57 -5.5l21 -2q15 -280 15 -440q0 -71 -4 -181t-8 -185l-3 -74q-80 -10 -140 -10v27z" />
<glyph unicode="^" horiz-adv-x="512" d="M70 320h-30q95 205 194 380q13 10 22 10q4 0 9.5 -2.5t8.5 -5.5l4 -2q92 -162 194 -380h-30l-186 362z" />
<glyph unicode="_" horiz-adv-x="543" d="M21 -95v25h500v-25h-500z" />
<glyph unicode="`" horiz-adv-x="237" d="M197 571l-16 -16q-86 69 -141 124l20 20q24 -24 58.5 -56t56.5 -52z" />
<glyph unicode="a" d="M82 377v113q65 20 150 20q49 0 84 -15.5t54 -37.5t29 -60t12.5 -69t2.5 -78q0 -93 -9 -230l92 -9v-11q-39 0 -121 -5t-144 -5q-60 0 -101.5 16t-59.5 41t-25 45.5t-7 39.5q0 16 3.5 32t16 37t32 36.5t56.5 26t85 10.5q28 0 64.5 -2.5t59.5 -5.5l23 -2q0 120 -31.5 170 t-115.5 50q-65 0 -129 -11q0 -19 -2.5 -43t-4.5 -38l-3 -15h-11zM379 247h-147q-91 0 -124.5 -32t-33.5 -83q0 -52 33 -84t125 -32l147 5v226z" />
<glyph unicode="b" horiz-adv-x="545" d="M28 0v11q45 7 89 9q-9 189 -9 345q0 168 9 363q-17 0 -39.5 3t-35.5 5l-14 3v11h120q-5 -130 -5 -261q65 21 148 21q201 0 201 -260t-201 -260q-51 0 -136.5 5t-126.5 5zM143 472v-451q52 -5 148 -5q52 0 86.5 18.5t51 53.5t22.5 72.5t6 89.5t-6 89t-22.5 72.5t-51 54 t-86.5 18.5q-82 0 -148 -12z" />
<glyph unicode="c" horiz-adv-x="444" d="M393 74v-59q-55 -25 -140 -25q-200 0 -200 260t207 260q34 0 67 -6t49 -12l17 -6v-112h-11q-1 6 -3 16t-4.5 35.5t-2.5 45.5q-67 13 -112 13q-54 0 -90 -18.5t-53 -54t-23 -72.5t-6 -89t6 -89.5t22 -72.5t50.5 -53.5t86.5 -18.5q65 0 121 14l11 44h8z" />
<glyph unicode="d" horiz-adv-x="545" d="M300 750h127q10 -221 10 -386q0 -158 -9 -344l89 -9v-11q-41 0 -126.5 -5t-135.5 -5q-202 0 -202 260t202 260q82 0 147 -21q0 145 -4 239q-20 0 -44.5 3t-39.5 5l-14 3v11zM402 21v451q-66 12 -147 12q-42 0 -73 -13t-48.5 -33.5t-28 -52.5t-14 -63t-3.5 -72 q0 -52 6 -89.5t22.5 -72.5t51.5 -53.5t87 -18.5z" />
<glyph unicode="e" horiz-adv-x="482" d="M408 74v-59q-55 -25 -151 -25q-203 0 -203 260q0 40 3 71.5t15.5 69t33 61.5t59.5 41t92 17q46 0 81 -11.5t53.5 -28t30 -39t14.5 -40t3 -35.5q0 -130 -182 -130l-168 10q0 -33 3 -60t13 -58t27.5 -52.5t49.5 -35.5t75 -14q54 0 132 14l10 44h9zM89 252h168q83 0 115 31 t32 73q0 19 -6 38.5t-20.5 41t-45.5 35t-75 13.5q-45 0 -77 -14.5t-49.5 -36t-27 -55t-12 -61.5t-2.5 -65z" />
<glyph unicode="f" horiz-adv-x="298" d="M46 0v11q41 6 83 9q-9 183 -9 340v124h-99v16q7 1 19 3t38.5 4.5t41.5 2.5q0 48 2.5 78.5t12 64.5t27 53t49.5 31.5t78 12.5h32v-63h-9q-9 17 -10 40h-10q-81 0 -109 -46t-28 -171q36 0 69 -2.5t48 -5.5l14 -2v-16h-131v-463l99 -5v-16h-208z" />
<glyph unicode="g" horiz-adv-x="542" d="M102 -184h8q10 -19 10 -45q50 -4 107 -4q54 0 89 15t53.5 47.5t25 72.5t7.5 102q-96 -14 -141 -14q-208 0 -208 260t208 260q54 0 136.5 -5t122.5 -5v-11q-48 -9 -92 -11q9 -180 9 -329q0 -62 -1 -102.5t-4 -85t-9 -71.5t-16.5 -55t-26 -43.5t-37.5 -28.5t-50.5 -18 t-65.5 -5q-27 0 -58.5 4t-48.5 8l-18 3v61zM402 21v458q-65 5 -141 5q-173 0 -173 -234t173 -234z" />
<glyph unicode="h" horiz-adv-x="589" d="M28 0v11q44 7 89 9q-9 186 -9 332q0 66 9 376q-17 0 -39.5 3t-35.5 5l-14 3v11h120q-5 -135 -5 -256q70 16 150 16q52 0 90 -18t58.5 -44t32 -64t14.5 -68t3 -66q0 -62 -9 -230l89 -9v-11h-209v16q47 4 94 5v229q0 36 -3 64.5t-12.5 62t-26.5 55.5t-48 37t-73 15l-150 -5 v-458l94 -5v-16h-209z" />
<glyph unicode="i" horiz-adv-x="265" d="M32 0v11q49 8 95 10q-8 168 -8 344q0 92 1 113q-18 0 -40 3t-35 5l-13 3v11h122v-479l86 -5v-16h-208zM115 622q0 12 7.5 20t19.5 8t20 -8t8 -20t-8 -19.5t-20 -7.5t-19.5 7.5t-7.5 19.5z" />
<glyph unicode="j" horiz-adv-x="238" d="M-23 -250v62h9q9 -16 10 -40q24 1 38.5 4t33 15.5t28.5 36t17 67t7 105.5q0 4 -5 135.5t-5 229.5q0 92 1 113q-18 0 -40 3t-35 5l-13 3v11h122v-150q0 -89 2.5 -218t2.5 -132q0 -99 -18 -155t-50 -75.5t-86 -19.5h-19zM106 622q0 12 7.5 20t19.5 8t20 -8t8 -20t-8 -19.5 t-20 -7.5t-19.5 7.5t-7.5 19.5z" />
<glyph unicode="k" horiz-adv-x="543" d="M28 0v11q45 7 89 9q-9 189 -9 332q0 70 9 376q-18 0 -40 3t-35 5l-14 3v11h120q-5 -245 -5 -398v-102q27 25 87.5 80t95 88t61.5 61l-81 5v16h207v-11q-42 -7 -85 -10q-148 -154 -241 -229q40 -30 241 -229l98 -10v-11h-210v16q33 1 72 4q-37 38 -245 230v-229l98 -5v-16 h-213z" />
<glyph unicode="l" horiz-adv-x="256" d="M28 0v11q45 7 89 9q-9 189 -9 345q0 192 8 363q-17 0 -39 3t-35 5l-14 3v11h120q-5 -208 -5 -385v-344l93 -5v-16h-208z" />
<glyph unicode="m" horiz-adv-x="966" d="M39 0v11q44 7 88 9q-8 168 -8 345q0 92 1 113q-18 0 -41.5 3t-38.5 5l-14 3v11h114q7 -18 16 -88q30 50 62 74t96 24q143 0 185 -128q50 128 172 128q198 0 198 -260q0 -65 -9 -230l89 -9v-11h-208v16q46 4 93 5v229q0 42 -3 72t-12.5 62.5t-26.5 53t-47.5 33.5t-72.5 13 q-160 0 -160 -214v-249q18 0 41 -2.5t37 -4.5l14 -3v-11h-220v11q6 1 15.5 3t33.5 4.5t42 2.5v229q0 42 -2.5 72t-12 62.5t-26.5 53t-47 33.5t-72 13q-161 0 -161 -214v-249l92 -5v-16h-207z" />
<glyph unicode="n" horiz-adv-x="609" d="M39 0v11q43 7 88 9q-8 168 -8 345q0 92 1 113q-18 0 -41.5 3t-38.5 5l-14 3v11h114q7 -18 16 -88q30 50 62.5 74t96.5 24q51 0 89 -18t58 -44t31.5 -64t14.5 -68t3 -66q0 -83 -8 -230l88 -9v-11h-207v16q46 4 92 5v229q0 42 -2.5 72t-12.5 62.5t-26.5 53t-47 33.5 t-72.5 13q-161 0 -161 -214v-249l92 -5v-16h-207z" />
<glyph unicode="o" horiz-adv-x="515" d="M257 17q42 0 73 13t49.5 33.5t29.5 52t14.5 63t3.5 71.5t-3.5 71.5t-14.5 62.5t-29.5 51.5t-49.5 33.5t-73 13q-52 0 -87 -18.5t-52.5 -53t-24 -72t-6.5 -88.5t6.5 -89t24 -72.5t52.5 -53t87 -18.5zM257 -10q-52 0 -90.5 18t-59.5 44.5t-34 63.5t-17 68t-4 66t4 66t17 68 t34 63.5t59.5 44.5t90.5 18t90.5 -18t59.5 -44.5t34 -63.5t17 -68t4 -66t-3.5 -66t-16.5 -68t-34.5 -63.5t-60 -44.5t-90.5 -18z" />
<glyph unicode="p" horiz-adv-x="542" d="M25 -250v11q45 8 88 10q-8 176 -8 369q0 178 8 338l-88 11v11q41 0 126.5 5t135.5 5q201 0 201 -260t-201 -260q-84 0 -147 21l3 -240l102 -5v-16h-220zM140 479v-452q73 -11 147 -11q52 0 86.5 18.5t51 53.5t22.5 72.5t6 89.5t-6 89t-22.5 72.5t-51 54t-86.5 18.5z" />
<glyph unicode="q" horiz-adv-x="549" d="M308 -250v11q58 8 102 10q-8 122 -9 241q-68 -22 -148 -22q-200 0 -200 260t200 260q58 0 146 -5t129 -5v-11q-47 -9 -92 -11v-707l92 -5v-16h-220zM401 27v452q-53 5 -148 5q-52 0 -86.5 -18.5t-50.5 -54t-22 -72.5t-6 -89q0 -41 3 -72t13.5 -63t28 -52.5t48 -33.5 t72.5 -13q75 0 148 11z" />
<glyph unicode="r" horiz-adv-x="458" d="M39 0v11q44 7 88 9q-8 165 -8 344q0 93 1 114q-18 0 -41.5 3t-38.5 5l-14 3v11h114q7 -18 16 -88q19 32 37 51.5t51 33t77 13.5q28 0 55 -4t40 -8l14 -4v-109h-11q-11 52 -11 93q-38 6 -87 6q-47 0 -80.5 -18t-52 -50t-26.5 -68t-8 -78v-249l90 -5v-16h-205z" />
<glyph unicode="s" horiz-adv-x="456" d="M60 120h13l3 -12t4.5 -30t2.5 -41q75 -21 149 -21q146 0 146 111q0 58 -31.5 80t-114.5 28q-97 7 -139.5 42.5t-42.5 99.5q0 56 44.5 94.5t137.5 38.5q41 0 79 -6t55 -12l17 -6v-112h-11q-11 55 -11 100q-54 10 -129 10q-69 0 -108 -27.5t-39 -79.5q0 -59 32 -83t115 -29 q97 -6 139 -41t42 -97q0 -58 -46 -97.5t-135 -39.5q-41 0 -84 9t-66 17l-22 9v95z" />
<glyph unicode="t" horiz-adv-x="308" d="M8 484v16q64 10 121 10q0 54 2.5 114t4.5 93l3 33h30q-5 -118 -5 -240q30 0 62.5 -2.5t49.5 -5.5l17 -2v-16h-129v-62q0 -266 20 -338.5t109 -72.5v-21q-24 0 -43.5 3t-35 12t-27.5 17.5t-21 28t-15 35t-10.5 46.5t-6.5 55t-3 67.5t-1.5 77t-0.5 90.5v62h-121z" />
<glyph unicode="u" horiz-adv-x="609" d="M583 0h-114q-7 17 -16 87q-30 -50 -62.5 -73.5t-96.5 -23.5q-51 0 -89 18t-58 44t-31.5 64t-14.5 68t-3 66q0 84 8 228l-88 11v11h207v-16q-47 -4 -92 -5v-229q0 -42 2.5 -72t12.5 -63t26.5 -53t47 -33t72.5 -13q161 0 161 214v249l-92 5v16h207v-11q-45 -9 -88 -11 q8 -165 8 -343q0 -32 -0.5 -69.5t-0.5 -44.5q18 0 41.5 -2.5t37.5 -4.5l15 -3v-11z" />
<glyph unicode="v" horiz-adv-x="558" d="M3 500h207v-16q-48 -4 -93 -5q33 -109 82.5 -248t79.5 -207q30 68 79.5 207t82.5 248l-93 5v16h207v-11q-38 -7 -79 -9q-71 -247 -175 -481q-13 -4 -22 -4l-22 4q-104 234 -175 481l-79 9v11z" />
<glyph unicode="w" horiz-adv-x="933" d="M3 500h209v-16q-46 -4 -90 -5q27 -110 75 -252t77 -203q25 53 74 197.5t82 257.5l-68 10v11h210v-11q-35 -7 -70 -10q35 -116 84 -259.5t73 -195.5q29 61 77 203t75 252l-89 5v16h208v-11q-41 -7 -84 -11q-27 -101 -79.5 -253.5t-85.5 -225.5q-13 -4 -22 -4l-22 4 q-82 180 -170 500q-90 -323 -171 -500q-13 -4 -22 -4l-22 4q-33 73 -85.5 225.5t-79.5 253.5l-84 11v11z" />
<glyph unicode="x" horiz-adv-x="551" d="M22 0v11q42 6 86 9q60 105 151 230q-91 125 -151 230l-86 9v11h216v-16q-46 -4 -95 -5q67 -115 133 -204q65 89 132 204l-95 5v16h216v-11q-42 -7 -87 -9q-54 -97 -150 -230q91 -125 151 -230l86 -9v-11h-216v16q48 4 95 5q-67 115 -132 204q-66 -89 -133 -204l95 -5v-16 h-216z" />
<glyph unicode="y" horiz-adv-x="601" d="M163 -178h7q10 -18 10 -45q58 -10 93 -10q57 0 89 10.5t55.5 45.5t32 99t8.5 173q-23 -54 -60 -79.5t-102 -25.5q-47 0 -82 11.5t-55.5 34.5t-33 45.5t-18 57.5t-6.5 56t-1 55q0 66 9 228q-20 1 -42.5 3.5t-34.5 4.5l-12 3v11h208v-16q-48 -4 -93 -5v-229 q0 -46 1.5 -72.5t10 -62t25 -54t47.5 -32t77 -13.5q49 0 82 17t50 49t23.5 67t6.5 82v248l-93 5v16h208v-11q-44 -9 -89 -11q9 -177 9 -330q0 -49 -0.5 -79.5t-2 -69.5t-4.5 -62.5t-9 -52.5t-14.5 -45.5t-20.5 -35t-28 -28.5t-36.5 -19t-46.5 -12.5t-58 -3.5q-24 0 -51.5 5 t-43.5 11l-15 5v61z" />
<glyph unicode="z" horiz-adv-x="433" d="M382 100v-100q-85 -10 -175 -10q-40 0 -86 2.5t-72 5.5l-26 2q50 81 180 260t158 224h-141q-20 0 -140 -4q0 -18 -2.5 -40.5t-5.5 -35.5l-2 -14h-12v110q70 10 162 10q40 0 85.5 -2.5t71.5 -5.5l26 -2q-50 -81 -180 -260.5t-157 -223.5h141q99 0 151 3q0 17 2.5 37.5 t5.5 31.5l2 12h14z" />
<glyph unicode="{" horiz-adv-x="286" d="M39 285v30h20q32 0 46 40.5t14 154.5q0 78 8.5 128t25.5 73.5t35 31t46 7.5v-15q-30 0 -46 -16t-25 -62t-9 -133q0 -99 -18.5 -154t-44.5 -70q63 -44 63 -224q0 -87 9 -133t25 -62t46 -16v-15q-28 0 -46 7.5t-35 31t-25.5 73.5t-8.5 128q0 112 -14 153.5t-46 41.5h-20z " />
<glyph unicode="|" horiz-adv-x="219" d="M95 -250v1000h29v-1000h-29z" />
<glyph unicode="}" horiz-adv-x="285" d="M248 285h-20q-32 0 -46 -41.5t-14 -153.5q0 -78 -8.5 -128t-25.5 -73.5t-35 -31t-46 -7.5v15q29 0 45 15.5t25 62.5t9 133q0 178 63 224q-26 15 -44.5 70t-18.5 154q0 86 -9 133t-25 62.5t-45 15.5v15q28 0 46 -7.5t35 -31t25.5 -73.5t8.5 -128q0 -114 14 -154.5 t46 -40.5h20v-30z" />
<glyph unicode="~" horiz-adv-x="536" d="M70 252h-20q1 5 2 12.5t9 27t19.5 34.5t33.5 27.5t51 12.5q37 0 63 -13t40 -31.5t26 -37t31 -31.5t45 -13q25 0 44 9t28.5 22t15 25.5t6.5 21.5l1 9h20q0 -5 -1.5 -12.5t-9.5 -27t-19 -34.5t-33.5 -27t-51.5 -12q-37 0 -63 13t-40 31.5t-26 37t-30.5 31.5t-45.5 13 q-40 0 -63.5 -22t-27.5 -44z" />
<glyph unicode="&#xa1;" horiz-adv-x="234" d="M102 364h35v-208q0 -73 -2.5 -160.5t-4.5 -138.5l-3 -51h-30q5 185 5 350v208zM147 482q0 -12 -7.5 -19.5t-19.5 -7.5t-20 7.5t-8 19.5t8 20t20 8t19.5 -8t7.5 -20z" />
<glyph unicode="&#xa2;" horiz-adv-x="446" d="M389 101v-86q-51 -22 -128 -25l-5 -88h-26l6 88q-187 8 -187 260q0 243 181 258l5 89h26l-6 -68v-18q34 0 67.5 -6.5t49.5 -12.5l17 -6v-112h-11q-11 52 -11 97q-67 13 -112 13q-54 0 -90 -18.5t-52.5 -54t-22.5 -72.5t-6 -89q0 -41 3 -72t13.5 -63t28 -52.5t48 -33.5 t72.5 -13q62 0 116 13q0 18 2.5 36t4.5 27l3 9h14z" />
<glyph unicode="&#xa3;" horiz-adv-x="562" d="M515 95v-95q-82 -10 -198 -10q-67 0 -151 5t-94 5h-47v11q16 7 58 10q46 3 79 80.5t33 235.5h-140v15q45 10 140 10q0 71 4.5 121.5t17.5 95.5t36 72.5t60 43t89 15.5q15 0 38.5 -2.5t39.5 -5.5l15 -2v-108h-10q-10 46 -11 96q-34 2 -72 2q-106 0 -139 -71t-33 -257 q41 0 89 -2.5t75 -5.5l28 -2v-15h-192q0 -81 -10.5 -144.5t-26 -95.5t-30.5 -52t-25 -25l-11 -5h179q74 0 188 3q0 21 3 40.5t5 27.5l3 9h10z" />
<glyph unicode="&#xa4;" horiz-adv-x="609" d="M80 27l-17 18l85 85q-48 53 -48 160q0 106 48 160l-85 85l17 17l86 -85q54 38 139 38t139 -38l86 85l18 -17l-86 -85q48 -56 48 -160q0 -106 -48 -160l86 -85l-18 -18l-86 86q-49 -38 -139 -38t-139 38zM305 102q98 0 134 46.5t36 141.5t-36 141t-134 46t-134 -46 t-36 -141t36 -141.5t134 -46.5z" />
<glyph unicode="&#xa5;" horiz-adv-x="671" d="M228 0v10q44 7 86 9q2 100 3 201q-45 0 -91 2.5t-70 5.5l-23 2v15h184q1 34 1 94l-19 23h-166v15q65 6 148 9q-117 169 -179 295l-82 9v10h205v-15q-40 -4 -83 -5q83 -161 193 -310q114 154 194 310l-84 5v15h205v-10q-40 -7 -81 -9q-82 -154 -180 -294l149 -10v-15h-168 q-7 -12 -17 -23q0 -15 -0.5 -46.5t-0.5 -47.5h186v-15q-86 -9 -187 -10q-2 -71 -8 -200l90 -5v-15h-205z" />
<glyph unicode="&#xa6;" horiz-adv-x="223" d="M97 -250v430h29v-430h-29zM97 320v430h29v-430h-29z" />
<glyph unicode="&#xa7;" horiz-adv-x="510" d="M83 109h12q11 -42 11 -76q70 -17 149 -17q158 0 158 100q0 53 -33.5 71.5t-124.5 21.5q-192 6 -192 141q0 80 75 122q-75 25 -75 112q0 56 48.5 91t143.5 35q19 0 38.5 -1.5t35.5 -3.5t30.5 -4.5t25 -5.5t18 -5t11.5 -4l4 -1v-113h-11q-11 53 -11 98q-74 14 -141 14 q-75 0 -116 -22.5t-41 -77.5q0 -53 33 -71.5t124 -21.5q193 -6 193 -141q0 -80 -75 -123q75 -25 75 -111q0 -56 -49 -91t-144 -35q-41 0 -84 7.5t-65 14.5l-23 8v89zM289 232q62 6 93 37t31 81q0 26 -7 45.5t-22 32t-28.5 20.5t-36.5 11.5t-35.5 5t-36 2.5t-28.5 1 q-60 -6 -90.5 -37t-30.5 -81q0 -30 11.5 -52t26 -33.5t40.5 -19t40.5 -9t42.5 -3t30 -1.5z" />
<glyph unicode="&#xa8;" horiz-adv-x="277" d="M40 626q0 12 7.5 20t19.5 8t20 -8t8 -20t-8 -19.5t-20 -7.5t-19.5 7.5t-7.5 19.5zM182 626q0 12 8 20t20 8t19.5 -8t7.5 -20t-7.5 -19.5t-19.5 -7.5t-20 7.5t-8 19.5z" />
<glyph unicode="&#xa9;" horiz-adv-x="675" d="M62 350q0 123 73 199t202 76t202 -76t73 -199t-73 -199t-202 -76t-202 76t-73 199zM100 350q0 -118 61 -183t176 -65t176.5 65.5t61.5 182.5t-61.5 182t-176.5 65t-176 -65t-61 -182zM435 411h-14q-8 39 -10 79q-36 6 -82 6q-56 0 -82 -45t-26 -101t26 -101t82 -45 q24 0 50.5 2t40.5 4l15 1v-19q-40 -12 -106 -12q-41 0 -71 18t-44.5 46t-20.5 54.5t-6 51.5t6 51t20.5 54.5t44.5 46.5t71 18q24 0 50.5 -3t40.5 -7l15 -3v-96z" />
<glyph unicode="&#xaa;" horiz-adv-x="377" d="M69 627v69q45 14 100 14q33 0 56 -10.5t35 -24.5t18.5 -40t7.5 -46t1 -53l-6 -151l57 -5v-10q-42 0 -86.5 -2.5t-82.5 -2.5q-41 0 -69 11t-39 29t-14.5 31t-3.5 28q0 86 127 86l93 -5q0 82 -19.5 113.5t-74.5 31.5q-40 0 -86 -6q0 -12 -1.5 -26.5t-3.5 -22.5l-2 -8h-7z M263 385v145h-93q-63 0 -83.5 -18t-20.5 -48q0 -79 104 -79h93z" />
<glyph unicode="&#xab;" horiz-adv-x="495" d="M448 109l-16 -17q-42 27 -93 69.5t-81 71.5l-30 29q-4 16 -4 28l4 27q109 110 204 170l16 -16q-90 -70 -201 -181q111 -111 201 -181zM255 109l-16 -17q-42 27 -93 69.5t-81 71.5l-30 29q-3 16 -3 28l3 27q109 110 204 170l16 -16q-90 -70 -201 -181q111 -111 201 -181z " />
<glyph unicode="&#xac;" horiz-adv-x="631" d="M76 277v25h480v-182h-20q-1 10 -3 26t-4.5 57.5t-2.5 73.5h-450z" />
<glyph unicode="&#xad;" horiz-adv-x="379" d="M69 277v25h240v-25h-240z" />
<glyph unicode="&#xae;" horiz-adv-x="428" d="M49 540q0 76 41.5 120.5t123.5 44.5t123.5 -44.5t41.5 -120.5q0 -77 -41 -121t-124 -44t-124 44t-41 121zM72 540q0 -64 34.5 -103.5t107.5 -39.5t108 39.5t35 103.5t-35 103t-108 39t-107.5 -39t-34.5 -103zM142 447v8l18 2q-2 40 -2 88q0 43 2 79l-18 2v8h22 q6 0 24 1.5t31 1.5q31 0 47 -16.5t16 -39.5q0 -19 -11.5 -33t-27.5 -18q7 -12 21 -39t19 -34l20 -2v-8h-39q-29 59 -41 81h-45q0 -13 0.5 -38t0.5 -33l21 -1v-9h-58zM178 544h45q17 0 28.5 10.5t11.5 26.5t-12 27.5t-28 11.5h-45v-76z" />
<glyph unicode="&#xaf;" horiz-adv-x="290" d="M40 616v28h210v-28h-210z" />
<glyph unicode="&#xb0;" horiz-adv-x="313" d="M41 595q0 53 32 84t83 31t83 -31t32 -84q0 -54 -32 -84.5t-83 -30.5t-83 30.5t-32 84.5zM69 595q0 -41 23 -64.5t64 -23.5t64.5 23.5t23.5 64.5t-23.5 64t-64.5 23t-64 -23t-23 -64z" />
<glyph unicode="&#xb1;" horiz-adv-x="608" d="M54 340v25h232q0 72 1 128.5t3 77.5l1 21h25v-227h238v-25h-238v-228h-25q-5 73 -5 228h-232zM54 0v25h500v-25h-500z" />
<glyph unicode="&#xb2;" horiz-adv-x="337" d="M281 436v-66q-52 -6 -116 -6l-113 6q-6 35 -6 85q0 47 25 71t97 39q56 10 76 33.5t20 61.5q0 35 -20 55t-85 20q-36 0 -80 -14l-6 -54h-15v65q35 28 101 28q75 0 103.5 -26.5t28.5 -73.5q0 -50 -27 -79.5t-96 -43.5q-52 -10 -73 -28t-21 -53v-68h88q66 0 99 3l5 45h15z " />
<glyph unicode="&#xb3;" horiz-adv-x="343" d="M43 445h18q5 -21 5 -42q36 -15 91 -15q62 0 84 21.5t22 56.5q0 76 -99 83l-52 2v24h52q52 0 75.5 23.5t23.5 60.5q0 34 -22 55t-84 21q-47 0 -81 -14l-7 -54h-15v65q37 28 103 28q134 0 134 -101q0 -66 -58 -97q58 -32 58 -96q0 -102 -134 -102q-32 0 -60.5 7t-40.5 13 l-13 7v54z" />
<glyph unicode="&#xb4;" horiz-adv-x="237" d="M56 555l-16 16q82 73 137 128l20 -20q-24 -24 -59.5 -55t-58.5 -50z" />
<glyph unicode="&#xb5;" horiz-adv-x="627" d="M590 0h-114q-7 17 -16 87q-19 -32 -35 -50.5t-47.5 -32.5t-76.5 -14q-66 0 -110.5 31.5t-55.5 73.5l5 -255h-25q-10 261 -10 410q0 66 9 228q-20 1 -42 3.5t-34 4.5l-13 3v11h208v-16q-48 -4 -93 -5v-229q0 -42 3 -72.5t12.5 -62.5t26.5 -52.5t47 -33.5t72 -13 q162 0 162 214v249l-93 5v16h208v-11q-45 -9 -89 -11q9 -186 9 -343q0 -26 -1 -64t0 -50q18 0 41 -2.5t38 -4.5l14 -3v-11z" />
<glyph unicode="&#xb6;" horiz-adv-x="594" d="M567 700v-11q-48 -11 -88 -11q-4 -120 -4 -328l5 -350h-30q-10 180 -10 330q0 195 8 355h-162q-4 -100 -4 -355l5 -330h-30q-9 159 -10 311q-109 -1 -163 51t-54 151q0 95 54.5 146t160.5 51q71 0 156.5 -5t95.5 -5h70zM247 336q0 200 6 350q-188 2 -188 -171 q0 -87 46.5 -133t135.5 -46z" />
<glyph unicode="&#xb7;" horiz-adv-x="190" d="M67 290q0 12 8 19.5t20 7.5t19.5 -7.5t7.5 -19.5t-7.5 -20t-19.5 -8t-20 8t-8 20z" />
<glyph unicode="&#xb8;" horiz-adv-x="282" d="M40 -209v20q5 -3 13.5 -7.5t35 -12t53.5 -7.5q36 2 52 16q15 21 15 47q0 36 -19.5 49.5t-55.5 13.5h-64q2 14 9.5 36.5t14.5 37.5l6 16h37l-31 -71l1 1q1 0 4.5 1t9 2t14.5 1.5t19 0.5q88 0 88 -88q0 -85 -106 -85q-24 0 -48 7t-36 15z" />
<glyph unicode="&#xb9;" horiz-adv-x="197" d="M49 370v14q25 5 48 6q-4 70 -4 173q0 38 3 158q-1 -1 -9.5 -5t-24.5 -7.5t-31 -3.5v22q18 0 34.5 6.5t24.5 13.5l8 7h25q-3 -109 -3 -191q0 -128 3 -173l48 -2v-18h-122z" />
<glyph unicode="&#xba;" horiz-adv-x="370" d="M185 385q64 0 89 39.5t25 115.5t-25 113t-89 37t-89 -37t-25 -113t25 -115.5t89 -39.5zM185 365q-37 0 -64 12.5t-41 30t-21.5 44t-9 45t-1.5 43.5t1.5 43t9 44t21.5 42.5t41 28.5t64 12t64.5 -12t41 -28.5t21.5 -42t9.5 -44t1.5 -43.5t-1.5 -43.5t-9.5 -45t-21.5 -44 t-41 -30t-64.5 -12.5z" />
<glyph unicode="&#xbb;" horiz-adv-x="495" d="M64 92l-16 17q90 70 201 181q-111 111 -201 181l16 16q42 -27 93 -69.5t81 -71.5l30 -29q4 -15 4 -27l-4 -28q-109 -110 -204 -170zM257 92l-17 17q94 73 202 181q-108 107 -202 181l17 16q42 -27 93 -69.5t80 -71.5l30 -29q4 -15 4 -27l-4 -28q-108 -110 -203 -170z" />
<glyph unicode="&#xbc;" horiz-adv-x="650" d="M117 0h-29l360 700h29zM53 316v14q25 5 48 6q-4 70 -4 173q0 38 3 158q-1 -1 -9.5 -5t-24 -7.5t-30.5 -3.5v22q18 0 34.5 6.5t24.5 13.5l8 7h24q-3 -109 -3 -191q0 -128 3 -173l49 -2v-18h-123zM489 0v10q27 6 51 7q-4 58 -4 138h-202q11 77 56 219l5 13q-1 -1 -1 -3h28 q-37 -113 -54 -207h168l3 207h27q-3 -111 -3 -207h55v-17l-55 -5q0 -55 5 -138l50 -4v-13h-129z" />
<glyph unicode="&#xbd;" horiz-adv-x="650" d="M117 0h-29l360 700h29zM53 316v14q25 5 48 6q-4 70 -4 173q0 38 3 158q-1 -1 -9.5 -5t-24 -7.5t-30.5 -3.5v22q18 0 34.5 6.5t24.5 13.5l8 7h24q-3 -109 -3 -191q0 -128 3 -173l49 -2v-18h-123zM601 66v-66q-53 -6 -117 -6l-112 6q-6 35 -6 85q0 47 25 71t96 39 q56 10 76 33.5t20 61.5q0 35 -20 55t-85 20q-33 0 -80 -14l-6 -54h-15v65q35 28 101 28q75 0 104 -27t29 -73q0 -50 -27.5 -79.5t-96.5 -43.5q-52 -10 -73 -28t-21 -53v-68h89q65 0 98 3l6 45h15z" />
<glyph unicode="&#xbe;" horiz-adv-x="744" d="M211 0h-28l360 700h28zM584 0v10q26 6 51 7q-5 73 -5 138h-201q9 75 56 223q4 10 4 9l-1 -3h28q-37 -113 -53 -207h167l4 207h26q-2 -111 -2 -207h55v-17l-55 -5q0 -72 4 -138l51 -4v-13h-129zM40 391h18q5 -21 5 -42q36 -15 91 -15q62 0 84 21.5t22 56.5q0 76 -99 83 l-52 2v24h52q52 0 75.5 23.5t23.5 60.5q0 34 -22 55t-84 21q-47 0 -81 -14l-7 -54h-15v65q37 28 103 28q134 0 134 -101q0 -66 -58 -97q58 -32 58 -96q0 -102 -134 -102q-32 0 -60.5 7t-41.5 13l-12 7v54z" />
<glyph unicode="&#xbf;" horiz-adv-x="484" d="M472 -41v-113q-8 -6 -22 -14t-61 -22t-96 -14q-244 0 -244 190q0 74 37 118t133 73q69 21 89.5 54.5t20.5 105.5v27h35v-27q0 -35 -3.5 -57.5t-16.5 -50.5t-43 -48.5t-77 -34.5q-82 -25 -111 -63.5t-29 -96.5q0 -165 209 -165q90 0 158 34q0 23 2.5 49t5.5 40l3 15h10z M374 482q0 -12 -7.5 -19.5t-19.5 -7.5t-20 7.5t-8 19.5t8 20t20 8t19.5 -8t7.5 -20z" />
<glyph unicode="&#xc0;" horiz-adv-x="655" d="M18 0v10q46 8 89 10q-9 147 -9 274q0 129 34 219.5t105 171.5l-94 5v10q-11 0 1 1q86 9 187 9q18 0 37 -2.5t29 -5.5l10 -2q80 -90 118 -181t38 -225q0 -127 -9 -274l89 -10v-10h-205v15q45 4 90 5v302h-395v-302l90 -5v-15h-205zM136 348h390q-8 110 -44.5 189.5 t-99.5 147.5h-103q-128 -138 -143 -337zM367 771l-16 -16q-87 69 -142 124l20 20q24 -24 58.5 -56t56.5 -52z" />
<glyph unicode="&#xc1;" horiz-adv-x="655" d="M18 0v10q46 8 89 10q-9 147 -9 274q0 129 34 219.5t105 171.5l-94 5v10q-11 0 1 1q86 9 187 9q18 0 37 -2.5t29 -5.5l10 -2q80 -90 118 -181t38 -225q0 -127 -9 -274l89 -10v-10h-205v15q45 4 90 5v302h-395v-302l90 -5v-15h-205zM136 348h390q-8 110 -44.5 189.5 t-99.5 147.5h-103q-128 -138 -143 -337zM322 755l-16 16q82 73 137 128l20 -20q-24 -24 -59.5 -55t-58.5 -50z" />
<glyph unicode="&#xc2;" horiz-adv-x="655" d="M18 0v10q46 8 89 10q-9 147 -9 274q0 129 34 219.5t105 171.5l-94 5v10q-11 0 1 1q86 9 187 9q18 0 37 -2.5t29 -5.5l10 -2q80 -90 118 -181t38 -225q0 -127 -9 -274l89 -10v-10h-205v15q45 4 90 5v302h-395v-302l90 -5v-15h-205zM136 348h390q-8 110 -44.5 189.5 t-99.5 147.5h-103q-128 -138 -143 -337zM209 755l-16 16q73 83 138 128q29 -20 63 -52t54 -54l20 -22l-16 -16q-46 52 -121 105q-33 -24 -63.5 -50t-44.5 -40z" />
<glyph unicode="&#xc3;" horiz-adv-x="655" d="M18 0v10q46 8 89 10q-9 147 -9 274q0 129 34 219.5t105 171.5l-94 5v10q-11 0 1 1q86 9 187 9q18 0 37 -2.5t29 -5.5l10 -2q80 -90 118 -181t38 -225q0 -127 -9 -274l89 -10v-10h-205v15q45 4 90 5v302h-395v-302l90 -5v-15h-205zM136 348h390q-8 110 -44.5 189.5 t-99.5 147.5h-103q-128 -138 -143 -337zM204 790h-23h1q14 74 75 81q6 1 12 1q29 0 70.5 -32.5t54.5 -32.5q45 1 63 55h24h-1q-25 -76 -88 -82q-28 0 -70 32.5t-55 32.5q-45 0 -63 -55z" />
<glyph unicode="&#xc4;" horiz-adv-x="655" d="M18 0v10q46 8 89 10q-9 147 -9 274q0 129 34 219.5t105 171.5l-94 5v10q-11 0 1 1q86 9 187 9q18 0 37 -2.5t29 -5.5l10 -2q80 -90 118 -181t38 -225q0 -127 -9 -274l89 -10v-10h-205v15q45 4 90 5v302h-395v-302l90 -5v-15h-205zM136 348h390q-8 110 -44.5 189.5 t-99.5 147.5h-103q-128 -138 -143 -337zM232 826q0 12 7.5 20t19.5 8t20 -8t8 -20t-8 -19.5t-20 -7.5t-19.5 7.5t-7.5 19.5zM374 826q0 12 8 20t20 8t19.5 -8t7.5 -20t-7.5 -19.5t-19.5 -7.5t-20 7.5t-8 19.5z" />
<glyph unicode="&#xc5;" horiz-adv-x="655" d="M18 0v10q46 8 89 10q-9 147 -9 274q0 129 34 219.5t105 171.5l-94 5v10q-11 0 1 1q86 9 187 9q18 0 37 -2.5t29 -5.5l10 -2q80 -90 118 -181t38 -225q0 -127 -9 -274l89 -10v-10h-205v15q45 4 90 5v302h-395v-302l90 -5v-15h-205zM136 348h390q-8 110 -44.5 189.5 t-99.5 147.5h-103q-128 -138 -143 -337zM331 755q-37 0 -62 22.5t-25 57.5t25 57.5t62 22.5t61.5 -22.5t24.5 -57.5t-24.5 -57.5t-61.5 -22.5zM331 780q25 0 43 15.5t18 39.5t-18 39.5t-43 15.5q-26 0 -44 -15.5t-18 -39.5t18 -39.5t44 -15.5z" />
<glyph unicode="&#xc6;" horiz-adv-x="954" d="M18 0v10q46 8 88 10q-8 131 -8 274q0 126 34 217.5t106 173.5l-95 5v10l114 7q74 3 111 3h333q48 0 97.5 -2.5t74.5 -5.5l25 -2v-108h-10q-11 49 -11 88q-62 5 -176 5h-171v-334h296l10 83h12v-192h-12q-7 46 -10 83h-296v-305q58 -5 171 -5q63 0 177 3q0 17 2.5 39.5 t5.5 36.5l2 13h10v-107q-93 -10 -197 -10q-63 0 -152.5 5t-143.5 5v15q45 4 90 5v305h-362v-305l90 -5v-15h-205zM495 351q0 163 9 334h-224q-64 -69 -100 -146.5t-45 -187.5h360z" />
<glyph unicode="&#xc7;" horiz-adv-x="555" d="M243 -209v20q35 -26 95 -26q74 0 74 62q0 37 -20.5 50t-59.5 13h-59q5 29 26 79q-135 4 -185.5 93t-50.5 268q0 65 4.5 112.5t19.5 97t41.5 80.5t72 50.5t108.5 19.5q56 0 104.5 -11.5t68.5 -22.5l21 -12v-112h-10q-10 52 -10 104q-77 29 -174 29q-55 0 -94.5 -19 t-61.5 -48t-35 -75.5t-16.5 -90t-3.5 -102.5t3.5 -102.5t16.5 -90t35 -75.5t61.5 -48t94.5 -19q102 0 178 27l10 40h6v-46q-59 -40 -166 -47l-28 -60q11 6 48 6q89 0 89 -88q0 -85 -107 -85q-24 0 -48 7t-36 15z" />
<glyph unicode="&#xc8;" horiz-adv-x="580" d="M40 0v10q45 7 89 9q-9 177 -9 331q0 150 9 330l-89 10v10q40 0 137 5t151 5q48 0 97 -2.5t74 -5.5l25 -2v-108h-10q-1 6 -3 15t-4.5 33t-2.5 41q-74 4 -176 4l-173 -5v-317h297l11 82h11v-190h-11q-9 41 -11 82h-297l5 -317q55 -5 168 -5q65 0 176 3q0 17 2.5 39.5 t5.5 36.5l2 13h10v-107q-89 -10 -196 -10q-46 0 -146 5t-142 5zM344 771l-16 -16q-87 69 -142 124l20 20q24 -24 58.5 -56t57.5 -52z" />
<glyph unicode="&#xc9;" horiz-adv-x="580" d="M40 0v10q45 7 89 9q-9 177 -9 331q0 150 9 330l-89 10v10q40 0 137 5t151 5q48 0 97 -2.5t74 -5.5l25 -2v-108h-10q-1 6 -3 15t-4.5 33t-2.5 41q-74 4 -176 4l-173 -5v-317h297l11 82h11v-190h-11q-9 41 -11 82h-297l5 -317q55 -5 168 -5q65 0 176 3q0 17 2.5 39.5 t5.5 36.5l2 13h10v-107q-89 -10 -196 -10q-46 0 -146 5t-142 5zM299 755l-16 16q82 73 137 128l20 -20q-24 -24 -59.5 -55t-58.5 -50z" />
<glyph unicode="&#xca;" horiz-adv-x="580" d="M40 0v10q45 7 89 9q-9 177 -9 331q0 150 9 330l-89 10v10q40 0 137 5t151 5q48 0 97 -2.5t74 -5.5l25 -2v-108h-10q-1 6 -3 15t-4.5 33t-2.5 41q-74 4 -176 4l-173 -5v-317h297l11 82h11v-190h-11q-9 41 -11 82h-297l5 -317q55 -5 168 -5q65 0 176 3q0 17 2.5 39.5 t5.5 36.5l2 13h10v-107q-89 -10 -196 -10q-46 0 -146 5t-142 5zM186 755l-16 16q73 83 138 128q29 -20 63 -52t54 -54l20 -22l-16 -16q-46 52 -121 105q-33 -24 -63.5 -50t-44.5 -40z" />
<glyph unicode="&#xcb;" horiz-adv-x="580" d="M40 0v10q45 7 89 9q-9 177 -9 331q0 150 9 330l-89 10v10q40 0 137 5t151 5q48 0 97 -2.5t74 -5.5l25 -2v-108h-10q-1 6 -3 15t-4.5 33t-2.5 41q-74 4 -176 4l-173 -5v-317h297l11 82h11v-190h-11q-9 41 -11 82h-297l5 -317q55 -5 168 -5q65 0 176 3q0 17 2.5 39.5 t5.5 36.5l2 13h10v-107q-89 -10 -196 -10q-46 0 -146 5t-142 5zM209 826q0 12 7.5 20t19.5 8t20 -8t8 -20t-8 -19.5t-20 -7.5t-19.5 7.5t-7.5 19.5zM351 826q0 12 8 20t20 8t19.5 -8t7.5 -20t-7.5 -19.5t-19.5 -7.5t-20 7.5t-8 19.5z" />
<glyph unicode="&#xcc;" horiz-adv-x="279" d="M40 0v10q45 7 89 9q-9 180 -9 331q0 150 9 330l-89 10v10h205v-15q-42 -4 -86 -5q-4 -122 -4 -330q0 -212 4 -330l86 -5v-15h-205zM179 771l-16 -16q-87 69 -142 124l20 20q24 -24 58.5 -56t56.5 -52z" />
<glyph unicode="&#xcd;" horiz-adv-x="279" d="M40 0v10q45 7 89 9q-9 180 -9 331q0 150 9 330l-89 10v10h205v-15q-42 -4 -86 -5q-4 -122 -4 -330q0 -212 4 -330l86 -5v-15h-205zM134 755l-16 16q82 73 137 128l20 -20q-24 -24 -59.5 -55t-58.5 -50z" />
<glyph unicode="&#xce;" horiz-adv-x="279" d="M40 0v10q45 7 89 9q-9 180 -9 331q0 150 9 330l-89 10v10h205v-15q-42 -4 -86 -5q-4 -122 -4 -330q0 -212 4 -330l86 -5v-15h-205zM21 755l-16 16q73 83 138 128q29 -20 63 -52t54 -54l20 -22l-16 -16q-46 52 -121 105q-33 -24 -63.5 -50t-44.5 -40z" />
<glyph unicode="&#xcf;" horiz-adv-x="279" d="M40 0v10q45 7 89 9q-9 180 -9 331q0 150 9 330l-89 10v10h205v-15q-42 -4 -86 -5q-4 -122 -4 -330q0 -212 4 -330l86 -5v-15h-205zM44 826q0 12 7.5 20t19.5 8t20 -8t8 -20t-8 -19.5t-20 -7.5t-19.5 7.5t-7.5 19.5zM186 826q0 12 8 20t20 8t19.5 -8t7.5 -20t-7.5 -19.5 t-19.5 -7.5t-20 7.5t-8 19.5z" />
<glyph unicode="&#xd0;" horiz-adv-x="648" d="M42 0v10q45 7 89 9q-9 174 -9 318l-90 4v12q42 7 90 9q0 144 9 318l-89 10v10q34 0 123 5t164 5q69 0 119 -24t76 -58t41 -87t18.5 -94.5t3.5 -96.5q0 -38 -1.5 -67.5t-7.5 -69t-16.5 -69t-30 -60t-46 -50t-66.5 -32t-90 -12.5q-74 0 -162.5 5t-124.5 5zM247 363v-16 q-44 -8 -90 -10l4 -317q46 -5 168 -5q59 0 101 19t65 48t36.5 76t17 89.5t3.5 102.5t-3.5 102.5t-17 89.5t-36.5 76t-65 48t-101 19q-54 0 -97 -1.5t-59 -2.5l-16 -1v-317h90z" />
<glyph unicode="&#xd1;" horiz-adv-x="719" d="M40 0v10q45 7 89 9q-9 180 -9 331q0 147 9 330q-18 0 -40 2.5t-35 5.5l-14 2v10h131q25 -38 198 -333.5t201 -334.5v318q0 86 -4 330l-86 5v15h205v-10q-45 -8 -88 -10q8 -160 8 -330q0 -72 -2.5 -159.5t-4.5 -138.5l-3 -52h-42q-22 34 -197.5 335t-200.5 333v-318 q0 -212 4 -330l86 -5v-15h-205zM233 790h-24h1q14 73 74 81q7 1 14 1q28 0 69.5 -32.5t55.5 -32.5q44 1 62 55h24h-1q-25 -76 -88 -82q-28 0 -70 32.5t-55 32.5q-46 0 -62 -55z" />
<glyph unicode="&#xd2;" horiz-adv-x="644" d="M322 -10q-59 0 -103.5 15.5t-72 45t-45.5 62.5t-26 78t-10.5 79.5t-2.5 79.5t2.5 79.5t10.5 79.5t26 78t45.5 62.5t72 45t103.5 15.5q58 0 103 -15.5t72.5 -45t45.5 -62.5t26 -78t10.5 -79.5t2.5 -79.5t-2.5 -79.5t-10.5 -79.5t-26 -78t-45.5 -62.5t-72.5 -45t-103 -15.5 zM322 15q57 0 98.5 19t65.5 48.5t38 75t18.5 90t4.5 102.5t-4.5 102.5t-18.5 90t-38 75t-65.5 48.5t-98.5 19t-98.5 -19t-65.5 -48.5t-38 -75t-18.5 -90t-4.5 -102.5t4.5 -102.5t18.5 -90t38 -75t65.5 -48.5t98.5 -19zM358 771l-16 -16q-86 69 -141 124l20 20 q24 -24 58.5 -56t56.5 -52z" />
<glyph unicode="&#xd3;" horiz-adv-x="644" d="M322 -10q-59 0 -103.5 15.5t-72 45t-45.5 62.5t-26 78t-10.5 79.5t-2.5 79.5t2.5 79.5t10.5 79.5t26 78t45.5 62.5t72 45t103.5 15.5q58 0 103 -15.5t72.5 -45t45.5 -62.5t26 -78t10.5 -79.5t2.5 -79.5t-2.5 -79.5t-10.5 -79.5t-26 -78t-45.5 -62.5t-72.5 -45t-103 -15.5 zM322 15q57 0 98.5 19t65.5 48.5t38 75t18.5 90t4.5 102.5t-4.5 102.5t-18.5 90t-38 75t-65.5 48.5t-98.5 19t-98.5 -19t-65.5 -48.5t-38 -75t-18.5 -90t-4.5 -102.5t4.5 -102.5t18.5 -90t38 -75t65.5 -48.5t98.5 -19zM313 755l-16 16q82 73 137 128l20 -20 q-24 -24 -59.5 -55t-58.5 -50z" />
<glyph unicode="&#xd4;" horiz-adv-x="644" d="M322 -10q-59 0 -103.5 15.5t-72 45t-45.5 62.5t-26 78t-10.5 79.5t-2.5 79.5t2.5 79.5t10.5 79.5t26 78t45.5 62.5t72 45t103.5 15.5q58 0 103 -15.5t72.5 -45t45.5 -62.5t26 -78t10.5 -79.5t2.5 -79.5t-2.5 -79.5t-10.5 -79.5t-26 -78t-45.5 -62.5t-72.5 -45t-103 -15.5 zM322 15q57 0 98.5 19t65.5 48.5t38 75t18.5 90t4.5 102.5t-4.5 102.5t-18.5 90t-38 75t-65.5 48.5t-98.5 19t-98.5 -19t-65.5 -48.5t-38 -75t-18.5 -90t-4.5 -102.5t4.5 -102.5t18.5 -90t38 -75t65.5 -48.5t98.5 -19zM201 755l-17 16q73 83 138 128q29 -20 63 -52t54 -54 l20 -22l-16 -16q-46 52 -121 105q-33 -24 -63.5 -50t-44.5 -40z" />
<glyph unicode="&#xd5;" horiz-adv-x="644" d="M322 -10q-59 0 -103.5 15.5t-72 45t-45.5 62.5t-26 78t-10.5 79.5t-2.5 79.5t2.5 79.5t10.5 79.5t26 78t45.5 62.5t72 45t103.5 15.5q58 0 103 -15.5t72.5 -45t45.5 -62.5t26 -78t10.5 -79.5t2.5 -79.5t-2.5 -79.5t-10.5 -79.5t-26 -78t-45.5 -62.5t-72.5 -45t-103 -15.5 zM322 15q57 0 98.5 19t65.5 48.5t38 75t18.5 90t4.5 102.5t-4.5 102.5t-18.5 90t-38 75t-65.5 48.5t-98.5 19t-98.5 -19t-65.5 -48.5t-38 -75t-18.5 -90t-4.5 -102.5t4.5 -102.5t18.5 -90t38 -75t65.5 -48.5t98.5 -19zM196 790h-24h1q14 73 74 81q7 1 14 1q28 0 69.5 -32.5 t55.5 -32.5q44 1 62 55h24h-1q-25 -76 -88 -82q-28 0 -70 32.5t-55 32.5q-46 0 -62 -55z" />
<glyph unicode="&#xd6;" horiz-adv-x="644" d="M322 -10q-59 0 -103.5 15.5t-72 45t-45.5 62.5t-26 78t-10.5 79.5t-2.5 79.5t2.5 79.5t10.5 79.5t26 78t45.5 62.5t72 45t103.5 15.5q58 0 103 -15.5t72.5 -45t45.5 -62.5t26 -78t10.5 -79.5t2.5 -79.5t-2.5 -79.5t-10.5 -79.5t-26 -78t-45.5 -62.5t-72.5 -45t-103 -15.5 zM322 15q57 0 98.5 19t65.5 48.5t38 75t18.5 90t4.5 102.5t-4.5 102.5t-18.5 90t-38 75t-65.5 48.5t-98.5 19t-98.5 -19t-65.5 -48.5t-38 -75t-18.5 -90t-4.5 -102.5t4.5 -102.5t18.5 -90t38 -75t65.5 -48.5t98.5 -19zM223 826q0 12 8 20t20 8t19.5 -8t7.5 -20t-7.5 -19.5 t-19.5 -7.5t-20 7.5t-8 19.5zM366 826q0 12 7.5 20t19.5 8t20 -8t8 -20t-8 -19.5t-20 -7.5t-19.5 7.5t-7.5 19.5z" />
<glyph unicode="&#xd7;" horiz-adv-x="541" d="M70 70l-20 20l200 200l-200 200l20 20l200 -200l200 200l20 -20l-200 -200l200 -200l-20 -20l-200 200z" />
<glyph unicode="&#xd8;" horiz-adv-x="645" d="M68 0l54 79q-59 83 -59 271q0 45 2.5 79.5t10.5 79.5t26 78t45.5 62.5t72 45t103.5 15.5q117 0 181 -66l39 56h35l-55 -81q60 -84 60 -269q0 -45 -2.5 -79.5t-10.5 -79.5t-26 -78t-45.5 -62.5t-72.5 -45t-103 -15.5q-117 0 -183 66l-37 -56h-35zM505 592l-347 -509 q55 -68 165 -68q57 0 98.5 19t65.5 48.5t38 75t18.5 90t4.5 102.5q0 161 -43 242zM141 108l345 509q-53 68 -163 68q-57 0 -98.5 -19t-65.5 -48.5t-38 -75t-18.5 -90t-4.5 -102.5q0 -167 43 -242z" />
<glyph unicode="&#xd9;" horiz-adv-x="696" d="M26 700h205v-15q-46 -4 -90 -5v-330q0 -37 1 -62t5 -63.5t12 -64.5t23.5 -55.5t37 -47.5t54.5 -30t75 -12q37 0 67 7t51 22t36.5 31t25 43t15.5 49.5t8.5 58t3 60t0.5 64.5v330l-90 5v15h203v-10q-45 -8 -87 -10q9 -180 9 -330q0 -32 -0.5 -50.5t-2.5 -52.5t-6 -55 t-12.5 -51t-20.5 -49t-30.5 -40.5t-42 -33.5t-56 -20t-71.5 -8q-49 0 -88 13t-64 31.5t-43 50.5t-27 59.5t-14 69t-6 68.5t-1 68q0 150 9 330l-89 10v10zM385 771l-16 -16q-87 69 -142 124l20 20q24 -24 58.5 -56t56.5 -52z" />
<glyph unicode="&#xda;" horiz-adv-x="696" d="M26 700h205v-15q-46 -4 -90 -5v-330q0 -37 1 -62t5 -63.5t12 -64.5t23.5 -55.5t37 -47.5t54.5 -30t75 -12q37 0 67 7t51 22t36.5 31t25 43t15.5 49.5t8.5 58t3 60t0.5 64.5v330l-90 5v15h203v-10q-45 -8 -87 -10q9 -180 9 -330q0 -32 -0.5 -50.5t-2.5 -52.5t-6 -55 t-12.5 -51t-20.5 -49t-30.5 -40.5t-42 -33.5t-56 -20t-71.5 -8q-49 0 -88 13t-64 31.5t-43 50.5t-27 59.5t-14 69t-6 68.5t-1 68q0 150 9 330l-89 10v10zM340 755l-16 16q82 73 137 128l20 -20q-24 -24 -59.5 -55t-58.5 -50z" />
<glyph unicode="&#xdb;" horiz-adv-x="696" d="M26 700h205v-15q-46 -4 -90 -5v-330q0 -37 1 -62t5 -63.5t12 -64.5t23.5 -55.5t37 -47.5t54.5 -30t75 -12q37 0 67 7t51 22t36.5 31t25 43t15.5 49.5t8.5 58t3 60t0.5 64.5v330l-90 5v15h203v-10q-45 -8 -87 -10q9 -180 9 -330q0 -32 -0.5 -50.5t-2.5 -52.5t-6 -55 t-12.5 -51t-20.5 -49t-30.5 -40.5t-42 -33.5t-56 -20t-71.5 -8q-49 0 -88 13t-64 31.5t-43 50.5t-27 59.5t-14 69t-6 68.5t-1 68q0 150 9 330l-89 10v10zM227 755l-16 16q73 83 138 128q29 -20 63 -52t54 -54l20 -22l-16 -16q-46 52 -121 105q-33 -24 -63.5 -50t-44.5 -40z " />
<glyph unicode="&#xdc;" horiz-adv-x="696" d="M26 700h205v-15q-46 -4 -90 -5v-330q0 -37 1 -62t5 -63.5t12 -64.5t23.5 -55.5t37 -47.5t54.5 -30t75 -12q37 0 67 7t51 22t36.5 31t25 43t15.5 49.5t8.5 58t3 60t0.5 64.5v330l-90 5v15h203v-10q-45 -8 -87 -10q9 -180 9 -330q0 -32 -0.5 -50.5t-2.5 -52.5t-6 -55 t-12.5 -51t-20.5 -49t-30.5 -40.5t-42 -33.5t-56 -20t-71.5 -8q-49 0 -88 13t-64 31.5t-43 50.5t-27 59.5t-14 69t-6 68.5t-1 68q0 150 9 330l-89 10v10zM250 826q0 12 7.5 20t19.5 8t20 -8t8 -20t-8 -19.5t-20 -7.5t-19.5 7.5t-7.5 19.5zM392 826q0 12 8 20t20 8t19.5 -8 t7.5 -20t-7.5 -19.5t-19.5 -7.5t-20 7.5t-8 19.5z" />
<glyph unicode="&#xdd;" horiz-adv-x="620" d="M202 0v10q44 7 87 9q3 217 3 320q-59 78 -121.5 178.5t-94.5 163.5l-81 9v10h205v-15q-40 -4 -84 -5q83 -162 194 -310q117 160 194 310l-84 5v15h205v-10q-40 -7 -81 -9q-34 -65 -96.5 -164.5t-120.5 -177.5q-1 -152 -10 -319l90 -5v-15h-205zM301 755l-16 16 q82 73 137 128l20 -20q-24 -24 -59.5 -55t-58.5 -50z" />
<glyph unicode="&#xde;" horiz-adv-x="581" d="M40 0v10q45 7 89 9q-9 180 -9 331q0 150 9 330l-89 10v10h205v-15q-42 -4 -86 -5q-1 -69 -1 -141q104 9 161 9q117 0 171.5 -54.5t54.5 -141.5q0 -82 -61.5 -139.5t-164.5 -57.5h-163q0 -27 3 -135l86 -5v-15h-205zM155 180h164q90 0 143 49.5t53 122.5q0 76 -48 123.5 t-148 47.5h-163z" />
<glyph unicode="&#xdf;" horiz-adv-x="601" d="M35 0v10q44 7 88 9q-8 155 -8 331v134h-80v16q41 5 80 5q0 121 46 173t131 52q96 0 138 -47t42 -168v-31h-65q-130 0 -130 -112q0 -51 28 -74.5t117 -32.5q76 -8 110.5 -41.5t34.5 -103.5q0 -57 -39.5 -93.5t-115.5 -36.5q-40 0 -77 6t-53 12l-17 7v95h12q1 -5 3 -12.5 t4.5 -29.5t2.5 -40q72 -12 125 -12q52 0 86 24.5t34 79.5q0 58 -26 82.5t-94 32.5q-42 5 -69.5 12.5t-52 22t-36.5 40t-12 62.5q0 138 195 138q0 66 -11 108t-34 61t-44.5 24.5t-55.5 5.5t-55.5 -6t-43.5 -25t-32.5 -60.5t-10.5 -105.5v-162q0 -212 4 -330l58 -5v-15h-177z " />
<glyph unicode="&#xe0;" d="M82 377v113q65 20 150 20q49 0 84 -15.5t54 -37.5t29 -60t12.5 -69t2.5 -78q0 -93 -9 -230l92 -9v-11q-39 0 -121 -5t-144 -5q-60 0 -101.5 16t-59.5 41t-25 45.5t-7 39.5q0 16 3.5 32t16 37t32 36.5t56.5 26t85 10.5q28 0 64.5 -2.5t59.5 -5.5l23 -2q0 120 -31.5 170 t-115.5 50q-65 0 -129 -11q0 -19 -2.5 -43t-4.5 -38l-3 -15h-11zM379 247h-147q-91 0 -124.5 -32t-33.5 -83q0 -52 33 -84t125 -32l147 5v226zM274 571l-16 -16q-86 69 -141 124l20 20q24 -24 58.5 -56t56.5 -52z" />
<glyph unicode="&#xe1;" d="M82 377v113q65 20 150 20q49 0 84 -15.5t54 -37.5t29 -60t12.5 -69t2.5 -78q0 -93 -9 -230l92 -9v-11q-39 0 -121 -5t-144 -5q-60 0 -101.5 16t-59.5 41t-25 45.5t-7 39.5q0 16 3.5 32t16 37t32 36.5t56.5 26t85 10.5q28 0 64.5 -2.5t59.5 -5.5l23 -2q0 120 -31.5 170 t-115.5 50q-65 0 -129 -11q0 -19 -2.5 -43t-4.5 -38l-3 -15h-11zM379 247h-147q-91 0 -124.5 -32t-33.5 -83q0 -52 33 -84t125 -32l147 5v226zM229 555l-16 16q82 73 137 128l20 -20q-24 -24 -59.5 -55t-58.5 -50z" />
<glyph unicode="&#xe2;" d="M82 377v113q65 20 150 20q49 0 84 -15.5t54 -37.5t29 -60t12.5 -69t2.5 -78q0 -93 -9 -230l92 -9v-11q-39 0 -121 -5t-144 -5q-60 0 -101.5 16t-59.5 41t-25 45.5t-7 39.5q0 16 3.5 32t16 37t32 36.5t56.5 26t85 10.5q28 0 64.5 -2.5t59.5 -5.5l23 -2q0 120 -31.5 170 t-115.5 50q-65 0 -129 -11q0 -19 -2.5 -43t-4.5 -38l-3 -15h-11zM379 247h-147q-91 0 -124.5 -32t-33.5 -83q0 -52 33 -84t125 -32l147 5v226zM117 555l-17 16q73 83 138 128q29 -20 63 -52t54 -54l20 -22l-16 -16q-46 52 -121 105q-33 -24 -63.5 -50t-44.5 -40z" />
<glyph unicode="&#xe3;" d="M82 377v113q65 20 150 20q49 0 84 -15.5t54 -37.5t29 -60t12.5 -69t2.5 -78q0 -93 -9 -230l92 -9v-11q-39 0 -121 -5t-144 -5q-60 0 -101.5 16t-59.5 41t-25 45.5t-7 39.5q0 16 3.5 32t16 37t32 36.5t56.5 26t85 10.5q28 0 64.5 -2.5t59.5 -5.5l23 -2q0 120 -31.5 170 t-115.5 50q-65 0 -129 -11q0 -19 -2.5 -43t-4.5 -38l-3 -15h-11zM379 247h-147q-91 0 -124.5 -32t-33.5 -83q0 -52 33 -84t125 -32l147 5v226zM112 590h-24h1q14 73 74 81q7 1 14 1q28 0 69.5 -32.5t55.5 -32.5q44 1 62 55h24h-1q-25 -76 -88 -82q-28 0 -70 32.5t-55 32.5 q-46 0 -62 -55z" />
<glyph unicode="&#xe4;" d="M82 377v113q65 20 150 20q49 0 84 -15.5t54 -37.5t29 -60t12.5 -69t2.5 -78q0 -93 -9 -230l92 -9v-11q-39 0 -121 -5t-144 -5q-60 0 -101.5 16t-59.5 41t-25 45.5t-7 39.5q0 16 3.5 32t16 37t32 36.5t56.5 26t85 10.5q28 0 64.5 -2.5t59.5 -5.5l23 -2q0 120 -31.5 170 t-115.5 50q-65 0 -129 -11q0 -19 -2.5 -43t-4.5 -38l-3 -15h-11zM379 247h-147q-91 0 -124.5 -32t-33.5 -83q0 -52 33 -84t125 -32l147 5v226zM139 626q0 12 8 20t20 8t19.5 -8t7.5 -20t-7.5 -19.5t-19.5 -7.5t-20 7.5t-8 19.5zM282 626q0 12 7.5 20t19.5 8t20 -8t8 -20 t-8 -19.5t-20 -7.5t-19.5 7.5t-7.5 19.5z" />
<glyph unicode="&#xe5;" d="M82 377v113q65 20 150 20q49 0 84 -15.5t54 -37.5t29 -60t12.5 -69t2.5 -78q0 -93 -9 -230l92 -9v-11q-39 0 -121 -5t-144 -5q-60 0 -101.5 16t-59.5 41t-25 45.5t-7 39.5q0 16 3.5 32t16 37t32 36.5t56.5 26t85 10.5q28 0 64.5 -2.5t59.5 -5.5l23 -2q0 120 -31.5 170 t-115.5 50q-65 0 -129 -11q0 -19 -2.5 -43t-4.5 -38l-3 -15h-11zM379 247h-147q-91 0 -124.5 -32t-33.5 -83q0 -52 33 -84t125 -32l147 5v226zM238 555q-37 0 -61.5 22.5t-24.5 57.5t24.5 57.5t61.5 22.5t61.5 -22.5t24.5 -57.5t-24.5 -57.5t-61.5 -22.5zM238 580 q25 0 43 15.5t18 39.5t-18 39.5t-43 15.5t-43 -15.5t-18 -39.5t18 -39.5t43 -15.5z" />
<glyph unicode="&#xe6;" horiz-adv-x="807" d="M733 74v-59q-55 -25 -151 -25q-117 0 -169 84l-4 -74q-82 -10 -177 -10q-60 0 -101.5 16t-59.5 41t-25 45.5t-7 39.5q0 16 3.5 32t16 37t32 36.5t56.5 26t85 10.5q28 0 64.5 -2.5t59.5 -5.5l23 -2q0 120 -31.5 170t-115.5 50q-65 0 -129 -11q0 -19 -2.5 -43t-4.5 -38 l-3 -15h-11v113q65 20 150 20q133 0 170 -105q43 105 180 105q46 0 81 -11.5t53.5 -28t30 -39t14.5 -40t3 -35.5q0 -130 -182 -130l-168 10q0 -43 5.5 -76t21.5 -68.5t51.5 -55.5t89.5 -20q51 0 132 14l10 44h9zM379 247h-147q-91 0 -124.5 -32t-33.5 -83q0 -52 33 -84 t125 -32l147 5v226zM414 252h168q83 0 115 31t32 73q0 19 -6 38.5t-20.5 41t-45.5 35t-75 13.5q-45 0 -77.5 -15t-49.5 -36t-27 -55t-12 -61t-2 -65z" />
<glyph unicode="&#xe7;" horiz-adv-x="444" d="M188 -209v20q35 -26 95 -26q74 0 74 62q0 37 -20.5 50t-59.5 13h-59q5 29 26 79q-191 7 -191 261q0 260 206 260q34 0 67.5 -6t49.5 -12l17 -6v-112h-11q-1 6 -3 16t-4.5 35.5t-2.5 45.5q-69 13 -113 13q-54 0 -90 -18.5t-52.5 -54t-22.5 -72.5t-6 -89q0 -41 3 -72 t13.5 -63t28 -52.5t48 -33.5t72.5 -13q65 0 121 14q1 11 3.5 22t4.5 16l2 6h9v-59q-44 -21 -111 -26l-28 -60q11 6 48 6q89 0 89 -88q0 -91 -116 -86q-28 1 -54 10z" />
<glyph unicode="&#xe8;" horiz-adv-x="482" d="M408 74v-59q-55 -25 -151 -25q-203 0 -203 260q0 40 3 71.5t15.5 69t33 61.5t59.5 41t92 17q46 0 81 -11.5t53.5 -28t30 -39t14.5 -40t3 -35.5q0 -130 -182 -130l-168 10q0 -33 3 -60t13 -58t27.5 -52.5t49.5 -35.5t75 -14q54 0 132 14l10 44h9zM89 252h168q83 0 115 31 t32 73q0 19 -6 38.5t-20.5 41t-45.5 35t-75 13.5q-45 0 -77 -14.5t-49.5 -36t-27 -55t-12 -61.5t-2.5 -65zM292 571l-16 -16q-87 69 -142 124l20 20q24 -24 58.5 -56t57.5 -52z" />
<glyph unicode="&#xe9;" horiz-adv-x="482" d="M408 74v-59q-55 -25 -151 -25q-203 0 -203 260q0 40 3 71.5t15.5 69t33 61.5t59.5 41t92 17q46 0 81 -11.5t53.5 -28t30 -39t14.5 -40t3 -35.5q0 -130 -182 -130l-168 10q0 -33 3 -60t13 -58t27.5 -52.5t49.5 -35.5t75 -14q54 0 132 14l10 44h9zM89 252h168q83 0 115 31 t32 73q0 19 -6 38.5t-20.5 41t-45.5 35t-75 13.5q-45 0 -77 -14.5t-49.5 -36t-27 -55t-12 -61.5t-2.5 -65zM247 555l-16 16q82 73 137 128l20 -20q-24 -24 -59.5 -55t-58.5 -50z" />
<glyph unicode="&#xea;" horiz-adv-x="482" d="M408 74v-59q-55 -25 -151 -25q-203 0 -203 260q0 40 3 71.5t15.5 69t33 61.5t59.5 41t92 17q46 0 81 -11.5t53.5 -28t30 -39t14.5 -40t3 -35.5q0 -130 -182 -130l-168 10q0 -33 3 -60t13 -58t27.5 -52.5t49.5 -35.5t75 -14q54 0 132 14l10 44h9zM89 252h168q83 0 115 31 t32 73q0 19 -6 38.5t-20.5 41t-45.5 35t-75 13.5q-45 0 -77 -14.5t-49.5 -36t-27 -55t-12 -61.5t-2.5 -65zM134 555l-16 16q73 83 138 128q29 -20 63 -52t54 -54l20 -22l-16 -16q-46 52 -121 105q-33 -24 -63.5 -50t-44.5 -40z" />
<glyph unicode="&#xeb;" horiz-adv-x="482" d="M408 74v-59q-55 -25 -151 -25q-203 0 -203 260q0 40 3 71.5t15.5 69t33 61.5t59.5 41t92 17q46 0 81 -11.5t53.5 -28t30 -39t14.5 -40t3 -35.5q0 -130 -182 -130l-168 10q0 -33 3 -60t13 -58t27.5 -52.5t49.5 -35.5t75 -14q54 0 132 14l10 44h9zM89 252h168q83 0 115 31 t32 73q0 19 -6 38.5t-20.5 41t-45.5 35t-75 13.5q-45 0 -77 -14.5t-49.5 -36t-27 -55t-12 -61.5t-2.5 -65zM157 626q0 12 7.5 20t19.5 8t20 -8t8 -20t-8 -19.5t-20 -7.5t-19.5 7.5t-7.5 19.5zM299 626q0 12 8 20t20 8t19.5 -8t7.5 -20t-7.5 -19.5t-19.5 -7.5t-20 7.5 t-8 19.5z" />
<glyph unicode="&#xec;" horiz-adv-x="265" d="M32 0v11q49 8 95 10q-8 168 -8 344q0 92 1 113q-18 0 -40 3t-35 5l-13 3v11h122v-479l86 -5v-16h-208zM155 571l-16 -16q-57 45 -107 89v20l-15 35q24 -24 58.5 -56t56.5 -52z" />
<glyph unicode="&#xed;" horiz-adv-x="265" d="M32 0v11q49 8 95 10q-8 168 -8 344q0 92 1 113q-18 0 -40 3t-35 5l-13 3v11h122v-479l86 -5v-16h-208zM134 555l-17 16q83 73 138 128l-15 -35v-20z" />
<glyph unicode="&#xee;" horiz-adv-x="265" d="M16 555l-16 16q72 83 137 128q29 -20 63.5 -52t54.5 -54l20 -22l-16 -16q-47 52 -122 105q-33 -24 -63.5 -50t-43.5 -40zM32 0v11q49 8 95 10q-8 168 -8 344q0 92 1 113q-18 0 -40 3t-35 5l-13 3v11h122v-479l86 -5v-16h-208z" />
<glyph unicode="&#xef;" horiz-adv-x="265" d="M32 0v11q49 8 95 10q-8 168 -8 344q0 92 1 113q-18 0 -40 3t-35 5l-13 3v11h122v-479l86 -5v-16h-208zM47 626q0 12 8 20t20 8t19.5 -8t7.5 -20t-7.5 -19.5t-19.5 -7.5t-20 7.5t-8 19.5zM170 626q0 12 7.5 20t19.5 8t20 -8t8 -20t-8 -19.5t-20 -7.5t-19.5 7.5t-7.5 19.5z " />
<glyph unicode="&#xf0;" horiz-adv-x="591" d="M77 567v113q81 30 192 30q151 0 206 -105l97 41v-16q-44 -28 -89 -49q29 -72 29 -231q0 -94 -9.5 -155.5t-35.5 -110.5t-74.5 -71.5t-123.5 -22.5q-55 0 -97.5 13.5t-67 34.5t-40.5 49.5t-21.5 55t-5.5 54.5q0 82 56.5 133t174.5 51q48 0 100 -2.5t80 -4.5l29 -3 q0 133 -24 197l-101 -38v15q52 32 93 45q-48 94 -176 94q-134 0 -171 -13q0 -24 -2.5 -50t-5.5 -40l-2 -14h-11zM477 356h-209q-105 0 -150.5 -44t-45.5 -115q0 -34 7 -61t25.5 -56.5t60.5 -46.5t104 -17q42 0 74 8.5t54 22t37 39t23.5 49.5t13 64t5.5 72.5t1 84.5z" />
<glyph unicode="&#xf1;" horiz-adv-x="609" d="M39 0v11q43 7 88 9q-8 168 -8 345q0 92 1 113q-18 0 -41.5 3t-38.5 5l-14 3v11h114q7 -18 16 -88q30 50 62.5 74t96.5 24q51 0 89 -18t58 -44t31.5 -64t14.5 -68t3 -66q0 -83 -8 -230l88 -9v-11h-207v16q46 4 92 5v229q0 42 -2.5 72t-12.5 62.5t-26.5 53t-47 33.5 t-72.5 13q-161 0 -161 -214v-249l92 -5v-16h-207zM177 590h-23h1q14 74 75 81q6 1 12 1q29 0 70.5 -32.5t54.5 -32.5q45 1 63 55h24h-1q-25 -76 -88 -82q-28 0 -70 32.5t-55 32.5q-45 0 -63 -55z" />
<glyph unicode="&#xf2;" horiz-adv-x="515" d="M257 17q42 0 73 13t49.5 33.5t29.5 52t14.5 63t3.5 71.5t-3.5 71.5t-14.5 62.5t-29.5 51.5t-49.5 33.5t-73 13q-52 0 -87 -18.5t-52.5 -53t-24 -72t-6.5 -88.5t6.5 -89t24 -72.5t52.5 -53t87 -18.5zM257 -10q-52 0 -90.5 18t-59.5 44.5t-34 63.5t-17 68t-4 66t4 66t17 68 t34 63.5t59.5 44.5t90.5 18t90.5 -18t59.5 -44.5t34 -63.5t17 -68t4 -66t-3.5 -66t-16.5 -68t-34.5 -63.5t-60 -44.5t-90.5 -18zM294 571l-17 -16q-86 69 -141 124l20 20q24 -24 58.5 -56t57.5 -52z" />
<glyph unicode="&#xf3;" horiz-adv-x="515" d="M257 17q42 0 73 13t49.5 33.5t29.5 52t14.5 63t3.5 71.5t-3.5 71.5t-14.5 62.5t-29.5 51.5t-49.5 33.5t-73 13q-52 0 -87 -18.5t-52.5 -53t-24 -72t-6.5 -88.5t6.5 -89t24 -72.5t52.5 -53t87 -18.5zM257 -10q-52 0 -90.5 18t-59.5 44.5t-34 63.5t-17 68t-4 66t4 66t17 68 t34 63.5t59.5 44.5t90.5 18t90.5 -18t59.5 -44.5t34 -63.5t17 -68t4 -66t-3.5 -66t-16.5 -68t-34.5 -63.5t-60 -44.5t-90.5 -18zM249 555l-17 16q83 73 138 128l20 -20q-24 -24 -59.5 -55t-58.5 -50z" />
<glyph unicode="&#xf4;" horiz-adv-x="515" d="M257 17q42 0 73 13t49.5 33.5t29.5 52t14.5 63t3.5 71.5t-3.5 71.5t-14.5 62.5t-29.5 51.5t-49.5 33.5t-73 13q-52 0 -87 -18.5t-52.5 -53t-24 -72t-6.5 -88.5t6.5 -89t24 -72.5t52.5 -53t87 -18.5zM257 -10q-52 0 -90.5 18t-59.5 44.5t-34 63.5t-17 68t-4 66t4 66t17 68 t34 63.5t59.5 44.5t90.5 18t90.5 -18t59.5 -44.5t34 -63.5t17 -68t4 -66t-3.5 -66t-16.5 -68t-34.5 -63.5t-60 -44.5t-90.5 -18zM136 555l-16 16q72 83 137 128q29 -20 63.5 -52t54.5 -54l20 -22l-16 -16q-47 52 -122 105q-33 -24 -63.5 -50t-43.5 -40z" />
<glyph unicode="&#xf5;" horiz-adv-x="515" d="M257 17q42 0 73 13t49.5 33.5t29.5 52t14.5 63t3.5 71.5t-3.5 71.5t-14.5 62.5t-29.5 51.5t-49.5 33.5t-73 13q-52 0 -87 -18.5t-52.5 -53t-24 -72t-6.5 -88.5t6.5 -89t24 -72.5t52.5 -53t87 -18.5zM257 -10q-52 0 -90.5 18t-59.5 44.5t-34 63.5t-17 68t-4 66t4 66t17 68 t34 63.5t59.5 44.5t90.5 18t90.5 -18t59.5 -44.5t34 -63.5t17 -68t4 -66t-3.5 -66t-16.5 -68t-34.5 -63.5t-60 -44.5t-90.5 -18zM131 590h-24h1q25 76 88 82q28 0 70 -32.5t55 -32.5q45 1 63 55h23h-1q-14 -74 -75 -81q-6 -1 -12 -1q-29 0 -70.5 32.5t-54.5 32.5 q-45 0 -63 -55z" />
<glyph unicode="&#xf6;" horiz-adv-x="515" d="M257 17q42 0 73 13t49.5 33.5t29.5 52t14.5 63t3.5 71.5t-3.5 71.5t-14.5 62.5t-29.5 51.5t-49.5 33.5t-73 13q-52 0 -87 -18.5t-52.5 -53t-24 -72t-6.5 -88.5t6.5 -89t24 -72.5t52.5 -53t87 -18.5zM257 -10q-52 0 -90.5 18t-59.5 44.5t-34 63.5t-17 68t-4 66t4 66t17 68 t34 63.5t59.5 44.5t90.5 18t90.5 -18t59.5 -44.5t34 -63.5t17 -68t4 -66t-3.5 -66t-16.5 -68t-34.5 -63.5t-60 -44.5t-90.5 -18zM159 626q0 12 7.5 20t19.5 8t20 -8t8 -20t-8 -19.5t-20 -7.5t-19.5 7.5t-7.5 19.5zM301 626q0 12 8 20t20 8t19.5 -8t7.5 -20t-7.5 -19.5 t-19.5 -7.5t-20 7.5t-8 19.5z" />
<glyph unicode="&#xf7;" horiz-adv-x="612" d="M279 162q0 12 7.5 20t19.5 8t20 -8t8 -20t-8 -19.5t-20 -7.5t-19.5 7.5t-7.5 19.5zM279 417q0 12 7.5 20t19.5 8t20 -8t8 -20t-8 -19.5t-20 -7.5t-19.5 7.5t-7.5 19.5zM66 277v25h480v-25h-480z" />
<glyph unicode="&#xf8;" horiz-adv-x="521" d="M48 0l51 67q-44 66 -44 183q0 35 4 66t17 68t34 63.5t59.5 44.5t90.5 18q90 0 144 -54l34 44h35l-52 -67q44 -67 44 -183q0 -35 -3.5 -66t-16.5 -68t-34.5 -63.5t-60 -44.5t-90.5 -18q-92 0 -143 53l-34 -43h-35zM402 409l-267 -342q42 -50 125 -50q40 0 70 11t47.5 31.5 t29 41.5t16 51.5t6 50.5t1.5 47q0 105 -28 159zM118 91l268 342q-42 49 -126 49q-36 0 -64 -10t-45.5 -23.5t-30 -37t-18 -40.5t-9 -45.5t-3.5 -40v-35.5q0 -105 28 -159z" />
<glyph unicode="&#xf9;" horiz-adv-x="609" d="M583 0h-114q-7 17 -16 87q-30 -50 -62.5 -73.5t-96.5 -23.5q-51 0 -89 18t-58 44t-31.5 64t-14.5 68t-3 66q0 84 8 228l-88 11v11h207v-16q-47 -4 -92 -5v-229q0 -42 2.5 -72t12.5 -63t26.5 -53t47 -33t72.5 -13q161 0 161 214v249l-92 5v16h207v-11q-45 -9 -88 -11 q8 -165 8 -343q0 -32 -0.5 -69.5t-0.5 -44.5q18 0 41.5 -2.5t37.5 -4.5l15 -3v-11zM330 571l-16 -16q-86 69 -141 124l20 20q24 -24 58.5 -56t56.5 -52z" />
<glyph unicode="&#xfa;" horiz-adv-x="609" d="M583 0h-114q-7 17 -16 87q-30 -50 -62.5 -73.5t-96.5 -23.5q-51 0 -89 18t-58 44t-31.5 64t-14.5 68t-3 66q0 84 8 228l-88 11v11h207v-16q-47 -4 -92 -5v-229q0 -42 2.5 -72t12.5 -63t26.5 -53t47 -33t72.5 -13q161 0 161 214v249l-92 5v16h207v-11q-45 -9 -88 -11 q8 -165 8 -343q0 -32 -0.5 -69.5t-0.5 -44.5q18 0 41.5 -2.5t37.5 -4.5l15 -3v-11zM285 555l-16 16q82 73 137 128l20 -20q-24 -24 -59.5 -55t-58.5 -50z" />
<glyph unicode="&#xfb;" horiz-adv-x="609" d="M583 0h-114q-7 17 -16 87q-30 -50 -62.5 -73.5t-96.5 -23.5q-51 0 -89 18t-58 44t-31.5 64t-14.5 68t-3 66q0 84 8 228l-88 11v11h207v-16q-47 -4 -92 -5v-229q0 -42 2.5 -72t12.5 -63t26.5 -53t47 -33t72.5 -13q161 0 161 214v249l-92 5v16h207v-11q-45 -9 -88 -11 q8 -165 8 -343q0 -32 -0.5 -69.5t-0.5 -44.5q18 0 41.5 -2.5t37.5 -4.5l15 -3v-11zM173 555l-17 16q73 83 138 128q29 -20 63 -52t54 -54l20 -22l-16 -16q-46 52 -121 105q-33 -24 -63.5 -50t-44.5 -40z" />
<glyph unicode="&#xfc;" horiz-adv-x="609" d="M583 0h-114q-7 17 -16 87q-30 -50 -62.5 -73.5t-96.5 -23.5q-51 0 -89 18t-58 44t-31.5 64t-14.5 68t-3 66q0 84 8 228l-88 11v11h207v-16q-47 -4 -92 -5v-229q0 -42 2.5 -72t12.5 -63t26.5 -53t47 -33t72.5 -13q161 0 161 214v249l-92 5v16h207v-11q-45 -9 -88 -11 q8 -165 8 -343q0 -32 -0.5 -69.5t-0.5 -44.5q18 0 41.5 -2.5t37.5 -4.5l15 -3v-11zM195 626q0 12 8 20t20 8t19.5 -8t7.5 -20t-7.5 -19.5t-19.5 -7.5t-20 7.5t-8 19.5zM338 626q0 12 7.5 20t19.5 8t20 -8t8 -20t-8 -19.5t-20 -7.5t-19.5 7.5t-7.5 19.5z" />
<glyph unicode="&#xfd;" horiz-adv-x="601" d="M163 -178h7q10 -18 10 -45q58 -10 93 -10q57 0 89 10.5t55.5 45.5t32 99t8.5 173q-23 -54 -60 -79.5t-102 -25.5q-47 0 -82 11.5t-55.5 34.5t-33 45.5t-18 57.5t-6.5 56t-1 55q0 66 9 228q-20 1 -42.5 3.5t-34.5 4.5l-12 3v11h208v-16q-48 -4 -93 -5v-229 q0 -46 1.5 -72.5t10 -62t25 -54t47.5 -32t77 -13.5q49 0 82 17t50 49t23.5 67t6.5 82v248l-93 5v16h208v-11q-44 -9 -89 -11q9 -177 9 -330q0 -49 -0.5 -79.5t-2 -69.5t-4.5 -62.5t-9 -52.5t-14.5 -45.5t-20.5 -35t-28 -28.5t-36.5 -19t-46.5 -12.5t-58 -3.5q-24 0 -51.5 5 t-43.5 11l-15 5v61zM288 555l-17 16q83 73 138 128l20 -20q-24 -24 -59.5 -55t-58.5 -50z" />
<glyph unicode="&#xfe;" horiz-adv-x="543" d="M10 -250v11q51 8 95 10q-15 210 -15 479q0 303 11 478q-17 0 -39.5 3l-37.5 5l-14 3v11h116q-5 -197 -5 -334q51 94 165 94q55 0 95 -18.5t60 -43.5t31.5 -64t14 -67.5t2.5 -66.5q0 -31 -2 -54.5t-7.5 -57t-19.5 -57t-35 -46t-56.5 -34t-82.5 -11.5q-112 0 -165 94 q0 -58 2.5 -117.5t6 -118.5t4.5 -77l101 -5v-16h-225zM286 16q52 0 87 18.5t52 53.5t23 72.5t6 89.5q0 40 -3.5 71t-14 62.5t-28.5 52t-49 33.5t-73 13q-53 0 -88 -19.5t-51.5 -55.5t-22 -72t-5.5 -85q0 -50 5.5 -86.5t22 -72.5t51.5 -55.5t88 -19.5z" />
<glyph unicode="&#xff;" horiz-adv-x="601" d="M163 -178h7q10 -18 10 -45q58 -10 93 -10q57 0 89 10.5t55.5 45.5t32 99t8.5 173q-23 -54 -60 -79.5t-102 -25.5q-47 0 -82 11.5t-55.5 34.5t-33 45.5t-18 57.5t-6.5 56t-1 55q0 66 9 228q-20 1 -42.5 3.5t-34.5 4.5l-12 3v11h208v-16q-48 -4 -93 -5v-229 q0 -46 1.5 -72.5t10 -62t25 -54t47.5 -32t77 -13.5q49 0 82 17t50 49t23.5 67t6.5 82v248l-93 5v16h208v-11q-44 -9 -89 -11q9 -177 9 -330q0 -49 -0.5 -79.5t-2 -69.5t-4.5 -62.5t-9 -52.5t-14.5 -45.5t-20.5 -35t-28 -28.5t-36.5 -19t-46.5 -12.5t-58 -3.5q-24 0 -51.5 5 t-43.5 11l-15 5v61zM198 626q0 12 7.5 20t19.5 8t20 -8t8 -20t-8 -19.5t-20 -7.5t-19.5 7.5t-7.5 19.5zM340 626q0 12 8 20t20 8t19.5 -8t7.5 -20t-7.5 -19.5t-19.5 -7.5t-20 7.5t-8 19.5z" />
<glyph unicode="&#x152;" horiz-adv-x="994" d="M938 107v-107q-89 -10 -196 -10q-44 0 -94 2.5t-78 5.5l-28 2q-1 17 -4 110q-27 -60 -78 -90t-138 -30q-59 0 -103.5 15.5t-72 45t-45.5 62.5t-26 78t-10.5 79.5t-2.5 79.5t2.5 79.5t10.5 79.5t26 78t45.5 62.5t72 45t103.5 15.5q86 0 137.5 -30t78.5 -90q3 93 4 110 q115 10 200 10q48 0 97 -2.5t74 -5.5l25 -2v-108h-10q-1 5 -3 14.5t-4.5 33t-2.5 40.5q-62 5 -176 5l-173 -5v-317h298l10 82h11v-190h-11q-7 45 -10 82h-298l5 -317q55 -5 168 -5q65 0 176 3q0 17 2.5 39.5t5.5 36.5l2 13h10zM322 15q53 0 91.5 17t61.5 44.5t36.5 72 t18 90.5t4.5 108q0 64 -4.5 110t-17.5 91.5t-36 73.5t-61.5 45.5t-92.5 17.5q-57 0 -98.5 -19t-65.5 -48.5t-38 -75t-18.5 -90t-4.5 -102.5t4.5 -102.5t18.5 -90t38 -75t65.5 -48.5t98.5 -19z" />
<glyph unicode="&#x153;" horiz-adv-x="855" d="M781 74v-59q-55 -25 -151 -25q-145 0 -185 122q-46 -122 -188 -122q-52 0 -90.5 18t-59.5 44.5t-34 63.5t-17 68t-4 66t4 66t17 68t34 63.5t59.5 44.5t90.5 18q137 0 185 -119q42 119 188 119q46 0 81 -11.5t53.5 -28t30 -39t14.5 -40t3 -35.5q0 -130 -182 -130l-168 10 q0 -33 3 -60t13 -58t27.5 -52.5t49.5 -35.5t75 -14q71 0 132 13q0 9 2.5 20t5.5 18l2 7h9zM257 17q51 0 85.5 18t52.5 52t25 73t7 90q0 40 -3 69t-13 61.5t-28 53.5t-50 34.5t-76 13.5q-52 0 -87 -18.5t-52.5 -53t-24 -72t-6.5 -88.5t6.5 -89t24 -72.5t52.5 -53t87 -18.5z M462 252h168q83 0 115 31t32 73q0 19 -6 38.5t-20.5 41t-45.5 35t-75 13.5q-45 0 -77 -14.5t-49.5 -36t-27 -55t-12 -61.5t-2.5 -65z" />
<glyph unicode="&#x178;" horiz-adv-x="620" d="M202 0v10q44 7 87 9q3 217 3 320q-59 78 -121.5 178.5t-94.5 163.5l-81 9v10h205v-15q-40 -4 -84 -5q83 -162 194 -310q117 160 194 310l-84 5v15h205v-10q-40 -7 -81 -9q-34 -65 -96.5 -164.5t-120.5 -177.5q-1 -152 -10 -319l90 -5v-15h-205zM211 826q0 12 8 20t20 8 t19.5 -8t7.5 -20t-7.5 -19.5t-19.5 -7.5t-20 7.5t-8 19.5zM354 826q0 12 7.5 20t19.5 8t20 -8t8 -20t-8 -19.5t-20 -7.5t-19.5 7.5t-7.5 19.5z" />
<glyph unicode="&#x2c6;" horiz-adv-x="355" d="M56 555l-16 16q72 83 137 128q29 -20 63.5 -52t54.5 -54l20 -22l-16 -16q-47 52 -122 105q-33 -24 -63.5 -50t-43.5 -40z" />
<glyph unicode="&#x2dc;" horiz-adv-x="380" d="M64 590h-24h1q14 73 74 81q7 1 14 1q28 0 69.5 -32.5t55.5 -32.5q44 1 62 55h24h-1q-25 -76 -88 -82q-28 0 -70 32.5t-55 32.5q-46 0 -62 -55z" />
<glyph unicode="&#x2000;" horiz-adv-x="457" />
<glyph unicode="&#x2001;" horiz-adv-x="915" />
<glyph unicode="&#x2002;" horiz-adv-x="457" />
<glyph unicode="&#x2003;" horiz-adv-x="915" />
<glyph unicode="&#x2004;" horiz-adv-x="305" />
<glyph unicode="&#x2005;" horiz-adv-x="228" />
<glyph unicode="&#x2006;" horiz-adv-x="152" />
<glyph unicode="&#x2007;" horiz-adv-x="152" />
<glyph unicode="&#x2008;" horiz-adv-x="114" />
<glyph unicode="&#x2009;" horiz-adv-x="183" />
<glyph unicode="&#x200a;" horiz-adv-x="50" />
<glyph unicode="&#x2010;" horiz-adv-x="379" d="M69 277v25h240v-25h-240z" />
<glyph unicode="&#x2011;" horiz-adv-x="379" d="M69 277v25h240v-25h-240z" />
<glyph unicode="&#x2012;" horiz-adv-x="379" d="M69 277v25h240v-25h-240z" />
<glyph unicode="&#x2013;" horiz-adv-x="539" d="M69 277v25h400v-25h-400z" />
<glyph unicode="&#x2014;" horiz-adv-x="939" d="M69 277v25h800v-25h-800z" />
<glyph unicode="&#x2018;" horiz-adv-x="145" d="M67 700h28q-10 -135 -10 -190h-35q0 24 4 71.5t8 82.5z" />
<glyph unicode="&#x2019;" horiz-adv-x="143" d="M78 510h-27q10 135 10 190h35q0 -24 -4.5 -71.5t-9.5 -82.5z" />
<glyph unicode="&#x201a;" horiz-adv-x="156" d="M79 -100h-27q10 135 10 190h35q0 -24 -4.5 -71.5t-8.5 -82.5z" />
<glyph unicode="&#x201c;" horiz-adv-x="277" d="M200 700h27q-10 -135 -10 -190h-35q0 24 4.5 71.5t9.5 82.5zM67 700h28q-10 -135 -10 -190h-35q0 24 4 71.5t8 82.5z" />
<glyph unicode="&#x201d;" horiz-adv-x="276" d="M78 510h-27q10 135 10 190h35q0 -24 -4.5 -71.5t-9.5 -82.5zM211 510h-28q10 135 10 190h35q0 -24 -4 -71.5t-8 -82.5z" />
<glyph unicode="&#x201e;" horiz-adv-x="288" d="M79 -100h-27q10 135 10 190h35q0 -24 -4.5 -71.5t-8.5 -82.5zM212 -100h-28q10 135 10 190h35q0 -24 -4.5 -71.5t-8.5 -82.5z" />
<glyph unicode="&#x2022;" horiz-adv-x="246" d="M57 290q0 28 19 47t47 19t47 -19t19 -47t-19 -47t-47 -19t-47 19t-19 47z" />
<glyph unicode="&#x2026;" horiz-adv-x="408" d="M302 24q0 12 7.5 19.5t19.5 7.5t20 -7.5t8 -19.5t-8 -20t-20 -8t-19.5 8t-7.5 20zM177 24q0 12 7.5 19.5t19.5 7.5t20 -7.5t8 -19.5t-8 -20t-20 -8t-19.5 8t-7.5 20zM52 24q0 12 7.5 19.5t19.5 7.5t20 -7.5t8 -19.5t-8 -20t-20 -8t-19.5 8t-7.5 20z" />
<glyph unicode="&#x202f;" horiz-adv-x="183" />
<glyph unicode="&#x2039;" horiz-adv-x="302" d="M255 109l-16 -17q-42 27 -93 69.5t-81 71.5l-30 29q-3 16 -3 28l3 27q109 110 204 170l16 -16q-90 -70 -201 -181q111 -111 201 -181z" />
<glyph unicode="&#x203a;" horiz-adv-x="302" d="M64 92l-16 17q90 70 201 181q-111 111 -201 181l16 16q42 -27 93 -69.5t81 -71.5l30 -29q4 -15 4 -27l-4 -28q-109 -110 -204 -170z" />
<glyph unicode="&#x205f;" horiz-adv-x="228" />
<glyph unicode="&#x20ac;" horiz-adv-x="598" d="M36 262v25h70v125h-70v25h72q9 128 65 200.5t185 72.5q56 0 104.5 -10t69.5 -20l21 -10v-19q-67 34 -195 34q-109 0 -157.5 -65.5t-58.5 -182.5h329v-25h-330v-125h330v-25h-329q10 -116 58.5 -181.5t157.5 -65.5q64 0 112.5 6t65.5 12l17 6v-19q-70 -30 -195 -30 t-181.5 69t-68.5 203h-72z" />
<glyph unicode="&#x2122;" horiz-adv-x="795" d="M341 350v10q22 7 49 9q-5 60 -5 156q0 69 4 157l-48 9v9h88q40 -109 61 -175l51 -169l51 169l60 175h89v-9q-25 -7 -50 -9q5 -72 5 -157q0 -63 -5 -156l50 -9v-10h-124v15q22 2 48 4q3 84 3 158v145q-94 -289 -104 -322h-46l-104 322v-147v-156l50 -4v-15h-123zM119 350 v10q28 7 53 9q-3 138 -3 156v154h-94l-9 -50h-10v71q81 5 131 5l124 -5v-71h-10q-6 22 -9 46q-7 0 -26 1.5t-36.5 2t-32.5 0.5v-154q0 -110 2 -156l48 -4v-15h-128z" />
<glyph unicode="&#x25fc;" horiz-adv-x="500" d="M0 500h500v-500h-500v500z" />
</font>
</defs>
</svg>
